<svg id="Layer_1" data-name="Layer 1" xmlns="http://www.w3.org/2000/svg" xmlns:xlink="http://www.w3.org/1999/xlink" viewBox="0 0 1900 900"><defs><style>.cls-1{fill:none;}.cls-2{clip-path:url(#clip-path);}.cls-10,.cls-100,.cls-101,.cls-102,.cls-103,.cls-104,.cls-105,.cls-106,.cls-107,.cls-108,.cls-109,.cls-11,.cls-110,.cls-111,.cls-112,.cls-113,.cls-114,.cls-115,.cls-116,.cls-117,.cls-118,.cls-119,.cls-12,.cls-120,.cls-121,.cls-122,.cls-123,.cls-124,.cls-125,.cls-126,.cls-13,.cls-15,.cls-16,.cls-17,.cls-18,.cls-19,.cls-20,.cls-21,.cls-22,.cls-23,.cls-24,.cls-25,.cls-26,.cls-27,.cls-28,.cls-29,.cls-3,.cls-30,.cls-31,.cls-32,.cls-33,.cls-34,.cls-35,.cls-36,.cls-37,.cls-38,.cls-39,.cls-4,.cls-40,.cls-41,.cls-42,.cls-43,.cls-44,.cls-45,.cls-46,.cls-47,.cls-48,.cls-49,.cls-5,.cls-50,.cls-51,.cls-52,.cls-53,.cls-54,.cls-55,.cls-56,.cls-57,.cls-58,.cls-59,.cls-6,.cls-60,.cls-61,.cls-62,.cls-63,.cls-64,.cls-65,.cls-66,.cls-67,.cls-68,.cls-69,.cls-7,.cls-70,.cls-71,.cls-72,.cls-73,.cls-74,.cls-75,.cls-76,.cls-77,.cls-78,.cls-79,.cls-8,.cls-80,.cls-81,.cls-82,.cls-83,.cls-84,.cls-85,.cls-86,.cls-87,.cls-88,.cls-89,.cls-9,.cls-90,.cls-91,.cls-92,.cls-93,.cls-94,.cls-95,.cls-96,.cls-97,.cls-98,.cls-99{fill-rule:evenodd;}.cls-3{fill:url(#GradientFill_11);}.cls-4{fill:url(#GradientFill_12);}.cls-14,.cls-5{fill:#fff;}.cls-6{fill:url(#GradientFill_5);}.cls-7{fill:url(#GradientFill_6);}.cls-8{fill:url(#GradientFill_15);}.cls-9{fill:url(#GradientFill_16);}.cls-10{fill:url(#GradientFill_15-2);}.cls-11{fill:url(#GradientFill_16-2);}.cls-12{fill:url(#GradientFill_7);}.cls-13{fill:url(#GradientFill_8);}.cls-15{fill:url(#GradientFill_9);}.cls-16{fill:url(#GradientFill_10);}.cls-17{fill:url(#GradientFill_17);}.cls-18{fill:url(#GradientFill_18);}.cls-19{fill:url(#GradientFill_9-2);}.cls-20{fill:url(#GradientFill_10-2);}.cls-21{fill:url(#GradientFill_13);}.cls-22{fill:url(#GradientFill_14);}.cls-23{fill:url(#GradientFill_15-3);}.cls-24{fill:url(#GradientFill_16-3);}.cls-25{fill:url(#GradientFill_7-2);}.cls-26{fill:url(#GradientFill_8-2);}.cls-27{fill:url(#GradientFill_11-2);}.cls-28{fill:url(#GradientFill_12-2);}.cls-29{fill:url(#GradientFill_17-2);}.cls-30{fill:url(#GradientFill_18-2);}.cls-31{fill:url(#GradientFill_13-2);}.cls-32{fill:url(#GradientFill_14-2);}.cls-33{fill:url(#GradientFill_7-3);}.cls-34{fill:url(#GradientFill_8-3);}.cls-35{fill:url(#GradientFill_5-2);}.cls-36{fill:url(#GradientFill_6-2);}.cls-37{fill:url(#GradientFill_15-4);}.cls-38{fill:url(#GradientFill_16-4);}.cls-39{fill:url(#GradientFill_9-3);}.cls-40{fill:url(#GradientFill_10-3);}.cls-41{fill:url(#GradientFill_17-3);}.cls-42{fill:url(#GradientFill_18-3);}.cls-43{fill:url(#GradientFill_13-3);}.cls-44{fill:url(#GradientFill_14-3);}.cls-45{fill:url(#GradientFill_9-4);}.cls-46{fill:url(#GradientFill_10-4);}.cls-47{fill:url(#GradientFill_13-4);}.cls-48{fill:url(#GradientFill_14-4);}.cls-49{fill:url(#GradientFill_7-4);}.cls-50{fill:url(#GradientFill_8-4);}.cls-51{fill:url(#GradientFill_7-5);}.cls-52{fill:url(#GradientFill_8-5);}.cls-53{fill:url(#GradientFill_15-5);}.cls-54{fill:url(#GradientFill_16-5);}.cls-55{fill:url(#GradientFill_11-3);}.cls-56{fill:url(#GradientFill_12-3);}.cls-57{fill:url(#GradientFill_9-5);}.cls-58{fill:url(#GradientFill_10-5);}.cls-59{fill:url(#GradientFill_5-3);}.cls-60{fill:url(#GradientFill_6-3);}.cls-61{fill:url(#GradientFill_7-6);}.cls-62{fill:url(#GradientFill_8-6);}.cls-63{fill:url(#GradientFill_9-6);}.cls-64{fill:url(#GradientFill_10-6);}.cls-65{fill:url(#GradientFill_9-7);}.cls-66{fill:url(#GradientFill_10-7);}.cls-67{fill:url(#GradientFill_13-5);}.cls-68{fill:url(#GradientFill_14-5);}.cls-69{fill:url(#GradientFill_17-4);}.cls-70{fill:url(#GradientFill_18-4);}.cls-71{fill:url(#GradientFill_9-8);}.cls-72{fill:url(#GradientFill_10-8);}.cls-73{fill:url(#GradientFill_17-5);}.cls-74{fill:url(#GradientFill_18-5);}.cls-75{fill:url(#GradientFill_13-6);}.cls-76{fill:url(#GradientFill_14-6);}.cls-77{fill:url(#GradientFill_11-4);}.cls-78{fill:url(#GradientFill_12-4);}.cls-79{fill:url(#GradientFill_7-7);}.cls-80{fill:url(#GradientFill_8-7);}.cls-81{fill:url(#GradientFill_13-7);}.cls-82{fill:url(#GradientFill_14-7);}.cls-83{fill:url(#GradientFill_17-6);}.cls-84{fill:url(#GradientFill_18-6);}.cls-85{fill:url(#GradientFill_5-4);}.cls-86{fill:url(#GradientFill_6-4);}.cls-87{fill:url(#GradientFill_9-9);}.cls-88{fill:url(#GradientFill_10-9);}.cls-89{fill:url(#GradientFill_17-7);}.cls-90{fill:url(#GradientFill_18-7);}.cls-91{fill:url(#GradientFill_5-5);}.cls-92{fill:url(#GradientFill_6-5);}.cls-93{fill:url(#GradientFill_9-10);}.cls-94{fill:url(#GradientFill_10-10);}.cls-95{fill:url(#GradientFill_11-5);}.cls-96{fill:url(#GradientFill_12-5);}.cls-97{fill:url(#GradientFill_15-6);}.cls-98{fill:url(#GradientFill_16-6);}.cls-99{fill:url(#GradientFill_13-8);}.cls-100{fill:url(#GradientFill_14-8);}.cls-101{fill:url(#GradientFill_11-6);}.cls-102{fill:url(#GradientFill_12-6);}.cls-103{fill:url(#GradientFill_17-8);}.cls-104{fill:url(#GradientFill_18-8);}.cls-105{fill:url(#GradientFill_7-8);}.cls-106{fill:url(#GradientFill_8-8);}.cls-107{fill:url(#GradientFill_15-7);}.cls-108{fill:url(#GradientFill_16-7);}.cls-109{fill:url(#GradientFill_9-11);}.cls-110{fill:url(#GradientFill_10-11);}.cls-111{fill:url(#GradientFill_5-6);}.cls-112{fill:url(#GradientFill_6-6);}.cls-113{fill:url(#GradientFill_15-8);}.cls-114{fill:url(#GradientFill_16-8);}.cls-115{fill:url(#GradientFill_17-9);}.cls-116{fill:url(#GradientFill_18-9);}.cls-117{fill:url(#GradientFill_7-9);}.cls-118{fill:url(#GradientFill_8-9);}.cls-119{fill:url(#GradientFill_17-10);}.cls-120{fill:url(#GradientFill_18-10);}.cls-121{fill:url(#GradientFill_7-10);}.cls-122{fill:url(#GradientFill_8-10);}.cls-123{fill:url(#GradientFill_11-7);}.cls-124{fill:url(#GradientFill_12-7);}.cls-125{fill:url(#GradientFill_13-9);}.cls-126{fill:url(#GradientFill_14-9);}</style><clipPath id="clip-path"><rect class="cls-1" width="1900" height="900"/></clipPath><linearGradient id="GradientFill_11" x1="1371.03" y1="946.66" x2="1371.03" y2="915.46" gradientUnits="userSpaceOnUse"><stop offset="0" stop-color="#532b7c"/><stop offset="1" stop-color="#220b3b"/></linearGradient><linearGradient id="GradientFill_12" x1="1365.86" y1="922.92" x2="1365.86" y2="867.55" gradientUnits="userSpaceOnUse"><stop offset="0" stop-color="#532b7c"/><stop offset="0.11" stop-color="#57307f"/><stop offset="0.25" stop-color="#644089"/><stop offset="0.4" stop-color="#795999"/><stop offset="0.57" stop-color="#967daf"/><stop offset="0.74" stop-color="#bbabcb"/><stop offset="0.92" stop-color="#e7e2ed"/><stop offset="1" stop-color="#fff"/></linearGradient><linearGradient id="GradientFill_5" x1="1301.99" y1="955.58" x2="1301.99" y2="924.29" gradientUnits="userSpaceOnUse"><stop offset="0" stop-color="#ec1848"/><stop offset="1" stop-color="#c92027"/></linearGradient><linearGradient id="GradientFill_6" x1="1295.22" y1="938.75" x2="1295.22" y2="886.29" gradientUnits="userSpaceOnUse"><stop offset="0" stop-color="#ec1848"/><stop offset="1" stop-color="#fff"/></linearGradient><linearGradient id="GradientFill_15" x1="1342.55" y1="1290.23" x2="1342.55" y2="1255.44" gradientUnits="userSpaceOnUse"><stop offset="0" stop-color="#8ecfd6"/><stop offset="1" stop-color="#6bb0bc"/></linearGradient><linearGradient id="GradientFill_16" x1="1336.66" y1="890.02" x2="1336.66" y2="840.33" gradientUnits="userSpaceOnUse"><stop offset="0" stop-color="#8ecfd6"/><stop offset="1" stop-color="#fff"/></linearGradient><linearGradient id="GradientFill_15-2" x1="1229.7" y1="1155.7" x2="1229.7" y2="1129.47" xlink:href="#GradientFill_15"/><linearGradient id="GradientFill_16-2" x1="1221.9" y1="860.84" x2="1221.9" y2="816.91" xlink:href="#GradientFill_16"/><linearGradient id="GradientFill_7" x1="1277.21" y1="830.09" x2="1277.21" y2="801.81" gradientUnits="userSpaceOnUse"><stop offset="0" stop-color="#bbd533"/><stop offset="1" stop-color="#a9c838"/></linearGradient><linearGradient id="GradientFill_8" x1="1270.13" y1="813.34" x2="1270.13" y2="770.75" gradientUnits="userSpaceOnUse"><stop offset="0" stop-color="#bbd533"/><stop offset="1" stop-color="#fff"/></linearGradient><linearGradient id="GradientFill_9" x1="1182.52" y1="912.95" x2="1182.52" y2="888.99" gradientUnits="userSpaceOnUse"><stop offset="0" stop-color="#f8bc15"/><stop offset="1" stop-color="#e29e25"/></linearGradient><linearGradient id="GradientFill_10" x1="1174.01" y1="904.82" x2="1174.01" y2="857.41" gradientUnits="userSpaceOnUse"><stop offset="0" stop-color="#f8bc15"/><stop offset="1" stop-color="#fff"/></linearGradient><linearGradient id="GradientFill_17" x1="1266.04" y1="909.14" x2="1267.19" y2="876.13" gradientUnits="userSpaceOnUse"><stop offset="0" stop-color="#2e77a0"/><stop offset="1" stop-color="#17426c"/></linearGradient><linearGradient id="GradientFill_18" x1="1259.73" y1="889.26" x2="1259.73" y2="846.2" gradientUnits="userSpaceOnUse"><stop offset="0" stop-color="#2e77a0"/><stop offset="1" stop-color="#fff"/></linearGradient><linearGradient id="GradientFill_9-2" x1="1311.23" y1="858.16" x2="1311.23" y2="834.28" xlink:href="#GradientFill_9"/><linearGradient id="GradientFill_10-2" x1="1304.74" y1="851.51" x2="1304.74" y2="802.68" xlink:href="#GradientFill_10"/><linearGradient id="GradientFill_13" x1="1222.46" y1="961.74" x2="1222.46" y2="930.09" gradientUnits="userSpaceOnUse"><stop offset="0" stop-color="#ec1e24"/><stop offset="1" stop-color="#b72025"/></linearGradient><linearGradient id="GradientFill_14" x1="1214.45" y1="947.07" x2="1214.45" y2="890.95" gradientUnits="userSpaceOnUse"><stop offset="0" stop-color="#ec1e24"/><stop offset="1" stop-color="#fff"/></linearGradient><linearGradient id="GradientFill_15-3" x1="557.43" y1="903.14" x2="557.43" y2="873.05" xlink:href="#GradientFill_15"/><linearGradient id="GradientFill_16-3" x1="548.21" y1="883.62" x2="548.21" y2="840.21" xlink:href="#GradientFill_16"/><linearGradient id="GradientFill_7-2" x1="528.95" y1="703.31" x2="528.95" y2="671.79" xlink:href="#GradientFill_7"/><linearGradient id="GradientFill_8-2" x1="520.71" y1="920.68" x2="520.71" y2="874.09" xlink:href="#GradientFill_8"/><linearGradient id="GradientFill_11-2" x1="597.93" y1="956.07" x2="597.93" y2="926.27" xlink:href="#GradientFill_11"/><linearGradient id="GradientFill_12-2" x1="588.54" y1="928.84" x2="588.54" y2="881.35" xlink:href="#GradientFill_12"/><linearGradient id="GradientFill_17-2" x1="852.67" y1="882.9" x2="853.68" y2="853.95" xlink:href="#GradientFill_17"/><linearGradient id="GradientFill_18-2" x1="842.76" y1="859.3" x2="842.76" y2="822.95" xlink:href="#GradientFill_18"/><linearGradient id="GradientFill_13-2" x1="808.15" y1="924.09" x2="808.15" y2="894.55" xlink:href="#GradientFill_13"/><linearGradient id="GradientFill_14-2" x1="797.6" y1="907.88" x2="797.6" y2="858.38" xlink:href="#GradientFill_14"/><linearGradient id="GradientFill_7-3" x1="622.86" y1="716.25" x2="622.86" y2="690.4" xlink:href="#GradientFill_7"/><linearGradient id="GradientFill_8-3" x1="611.99" y1="807.73" x2="611.99" y2="771.03" xlink:href="#GradientFill_8"/><linearGradient id="GradientFill_5-2" x1="659.64" y1="789.14" x2="659.64" y2="761.1" xlink:href="#GradientFill_5"/><linearGradient id="GradientFill_6-2" x1="648.15" y1="777.51" x2="648.15" y2="742.4" xlink:href="#GradientFill_6"/><linearGradient id="GradientFill_15-4" x1="699.39" y1="762.92" x2="699.39" y2="742.04" xlink:href="#GradientFill_15"/><linearGradient id="GradientFill_16-4" x1="687.09" y1="748.82" x2="687.09" y2="719.18" xlink:href="#GradientFill_16"/><linearGradient id="GradientFill_9-3" x1="588.75" y1="858.31" x2="588.75" y2="834.31" xlink:href="#GradientFill_9"/><linearGradient id="GradientFill_10-3" x1="578.66" y1="845.18" x2="578.66" y2="802.91" xlink:href="#GradientFill_10"/><linearGradient id="GradientFill_17-3" x1="669.35" y1="874.21" x2="670.35" y2="845.39" xlink:href="#GradientFill_17"/><linearGradient id="GradientFill_18-3" x1="659.7" y1="848.04" x2="659.7" y2="811.62" xlink:href="#GradientFill_18"/><linearGradient id="GradientFill_13-3" x1="632.93" y1="913.93" x2="632.93" y2="882.99" xlink:href="#GradientFill_13"/><linearGradient id="GradientFill_14-3" x1="622.94" y1="895.53" x2="622.94" y2="845.34" xlink:href="#GradientFill_14"/><linearGradient id="GradientFill_9-4" x1="710.07" y1="830.99" x2="710.07" y2="809.59" xlink:href="#GradientFill_9"/><linearGradient id="GradientFill_10-4" x1="698.94" y1="820.14" x2="698.94" y2="781.38" xlink:href="#GradientFill_10"/><linearGradient id="GradientFill_13-4" x1="752.36" y1="802.61" x2="752.36" y2="778.04" xlink:href="#GradientFill_13"/><linearGradient id="GradientFill_14-4" x1="740.75" y1="787.87" x2="740.75" y2="748.07" xlink:href="#GradientFill_14"/><linearGradient id="GradientFill_7-4" x1="677.44" y1="963.19" x2="677.44" y2="930.74" xlink:href="#GradientFill_7"/><linearGradient id="GradientFill_8-4" x1="667.55" y1="939.76" x2="667.55" y2="895.32" xlink:href="#GradientFill_8"/><linearGradient id="GradientFill_7-5" x1="803.64" y1="843.75" x2="803.64" y2="816.62" xlink:href="#GradientFill_7"/><linearGradient id="GradientFill_8-5" x1="792.5" y1="824.11" x2="792.5" y2="787.16" xlink:href="#GradientFill_8"/><linearGradient id="GradientFill_15-5" x1="759.48" y1="879.17" x2="759.48" y2="852.77" xlink:href="#GradientFill_15"/><linearGradient id="GradientFill_16-5" x1="748.75" y1="863.58" x2="748.75" y2="824.01" xlink:href="#GradientFill_16"/><linearGradient id="GradientFill_11-3" x1="717.51" y1="920.6" x2="717.51" y2="893.29" xlink:href="#GradientFill_11"/><linearGradient id="GradientFill_12-3" x1="707.09" y1="896.1" x2="707.09" y2="852.06" xlink:href="#GradientFill_12"/><linearGradient id="GradientFill_9-5" x1="902.32" y1="918.85" x2="902.32" y2="895.53" xlink:href="#GradientFill_9"/><linearGradient id="GradientFill_10-5" x1="891.81" y1="909.3" x2="891.81" y2="864.89" xlink:href="#GradientFill_10"/><linearGradient id="GradientFill_5-3" x1="950.05" y1="808.14" x2="950.05" y2="785.08" xlink:href="#GradientFill_5"/><linearGradient id="GradientFill_6-3" x1="939.17" y1="793.82" x2="939.17" y2="757.24" xlink:href="#GradientFill_6"/><linearGradient id="GradientFill_7-6" x1="1001.4" y1="773.36" x2="1001.4" y2="752.13" xlink:href="#GradientFill_7"/><linearGradient id="GradientFill_8-6" x1="990.7" y1="758.62" x2="990.7" y2="726.91" xlink:href="#GradientFill_8"/><linearGradient id="GradientFill_9-6" x1="900.88" y1="838.75" x2="900.88" y2="817.9" xlink:href="#GradientFill_9"/><linearGradient id="GradientFill_10-6" x1="889.91" y1="829.85" x2="889.91" y2="790.36" xlink:href="#GradientFill_10"/><linearGradient id="GradientFill_9-7" x1="1112.25" y1="706.03" x2="1112.25" y2="692.98" xlink:href="#GradientFill_9"/><linearGradient id="GradientFill_10-7" x1="1102.23" y1="701.31" x2="1102.23" y2="675.87" xlink:href="#GradientFill_10"/><linearGradient id="GradientFill_13-5" x1="1055.31" y1="740.14" x2="1055.31" y2="720.8" xlink:href="#GradientFill_13"/><linearGradient id="GradientFill_14-5" x1="1044.88" y1="730.42" x2="1044.88" y2="697.01" xlink:href="#GradientFill_14"/><linearGradient id="GradientFill_17-4" x1="949.08" y1="679.68" x2="950.09" y2="650.64" xlink:href="#GradientFill_17"/><linearGradient id="GradientFill_18-4" x1="936.76" y1="670.39" x2="936.76" y2="644.38" xlink:href="#GradientFill_18"/><linearGradient id="GradientFill_9-8" x1="837.54" y1="684.86" x2="837.54" y2="674.6" xlink:href="#GradientFill_9"/><linearGradient id="GradientFill_10-8" x1="824.27" y1="679.07" x2="824.27" y2="661.12" xlink:href="#GradientFill_10"/><linearGradient id="GradientFill_17-5" x1="741.39" y1="726.85" x2="742.44" y2="706.75" xlink:href="#GradientFill_17"/><linearGradient id="GradientFill_18-5" x1="729.36" y1="721.43" x2="729.36" y2="703.76" xlink:href="#GradientFill_18"/><linearGradient id="GradientFill_13-6" x1="891.28" y1="699.56" x2="891.28" y2="673.94" xlink:href="#GradientFill_13"/><linearGradient id="GradientFill_14-6" x1="877.88" y1="663.62" x2="877.88" y2="649.88" xlink:href="#GradientFill_14"/><linearGradient id="GradientFill_11-4" x1="787.96" y1="710.28" x2="787.96" y2="695.4" xlink:href="#GradientFill_11"/><linearGradient id="GradientFill_12-4" x1="774.92" y1="695.9" x2="774.92" y2="673.13" xlink:href="#GradientFill_12"/><linearGradient id="GradientFill_7-7" x1="844.87" y1="740.6" x2="844.87" y2="721.75" xlink:href="#GradientFill_7"/><linearGradient id="GradientFill_8-7" x1="832.77" y1="726.24" x2="832.77" y2="699.57" xlink:href="#GradientFill_8"/><linearGradient id="GradientFill_13-7" x1="895.67" y1="713.18" x2="895.67" y2="696.89" xlink:href="#GradientFill_13"/><linearGradient id="GradientFill_14-7" x1="883.48" y1="703.61" x2="883.48" y2="676.98" xlink:href="#GradientFill_14"/><linearGradient id="GradientFill_17-6" x1="948.73" y1="687.58" x2="950.2" y2="673.59" xlink:href="#GradientFill_17"/><linearGradient id="GradientFill_18-6" x1="937.96" y1="677.87" x2="937.96" y2="661.39" xlink:href="#GradientFill_18"/><linearGradient id="GradientFill_5-4" x1="797.19" y1="764.84" x2="797.19" y2="740.27" xlink:href="#GradientFill_5"/><linearGradient id="GradientFill_6-4" x1="785.33" y1="755.7" x2="785.33" y2="723.68" xlink:href="#GradientFill_6"/><linearGradient id="GradientFill_9-9" x1="1008.95" y1="667.58" x2="1008.95" y2="660.41" xlink:href="#GradientFill_9"/><linearGradient id="GradientFill_10-9" x1="997.01" y1="663.9" x2="997.01" y2="651.01" xlink:href="#GradientFill_10"/><linearGradient id="GradientFill_17-7" x1="948.77" y1="738.92" x2="950.23" y2="718.05" xlink:href="#GradientFill_17"/><linearGradient id="GradientFill_18-7" x1="938.63" y1="724.96" x2="938.63" y2="699.73" xlink:href="#GradientFill_18"/><linearGradient id="GradientFill_5-5" x1="1004.49" y1="713.2" x2="1004.49" y2="697.67" xlink:href="#GradientFill_5"/><linearGradient id="GradientFill_6-5" x1="993.33" y1="703.62" x2="993.33" y2="678.88" xlink:href="#GradientFill_6"/><linearGradient id="GradientFill_9-10" x1="898.68" y1="767.76" x2="898.68" y2="750.26" xlink:href="#GradientFill_9"/><linearGradient id="GradientFill_10-10" x1="887.33" y1="760.07" x2="887.33" y2="727.3" xlink:href="#GradientFill_10"/><linearGradient id="GradientFill_11-5" x1="849.93" y1="807.11" x2="849.93" y2="785.06" xlink:href="#GradientFill_11"/><linearGradient id="GradientFill_12-5" x1="838.69" y1="787.43" x2="838.69" y2="751.62" xlink:href="#GradientFill_12"/><linearGradient id="GradientFill_15-6" x1="1062.63" y1="829.19" x2="1062.63" y2="804.33" xlink:href="#GradientFill_15"/><linearGradient id="GradientFill_16-6" x1="1051.81" y1="680.87" x2="1051.81" y2="662.38" xlink:href="#GradientFill_16"/><linearGradient id="GradientFill_13-8" x1="949.95" y1="884.71" x2="949.95" y2="856.93" xlink:href="#GradientFill_13"/><linearGradient id="GradientFill_14-8" x1="939.56" y1="870.33" x2="939.56" y2="822.86" xlink:href="#GradientFill_14"/><linearGradient id="GradientFill_11-6" x1="1050" y1="807.08" x2="1050" y2="785.03" xlink:href="#GradientFill_11"/><linearGradient id="GradientFill_12-6" x1="1039.95" y1="788.71" x2="1039.95" y2="751.41" xlink:href="#GradientFill_12"/><linearGradient id="GradientFill_17-8" x1="1101.73" y1="767.16" x2="1103.01" y2="742.64" xlink:href="#GradientFill_17"/><linearGradient id="GradientFill_18-8" x1="1093.16" y1="751.97" x2="1093.16" y2="721.84" xlink:href="#GradientFill_18"/><linearGradient id="GradientFill_7-8" x1="1158.04" y1="735.71" x2="1158.04" y2="716.76" xlink:href="#GradientFill_7"/><linearGradient id="GradientFill_8-8" x1="1148.86" y1="723.74" x2="1148.86" y2="694.36" xlink:href="#GradientFill_8"/><linearGradient id="GradientFill_15-7" x1="999.09" y1="959.5" x2="999.09" y2="934.54" xlink:href="#GradientFill_15"/><linearGradient id="GradientFill_16-7" x1="988.86" y1="831.03" x2="988.86" y2="792.92" xlink:href="#GradientFill_16"/><linearGradient id="GradientFill_9-11" x1="1147.83" y1="796.69" x2="1147.83" y2="777.13" xlink:href="#GradientFill_9"/><linearGradient id="GradientFill_10-11" x1="1138.75" y1="790.01" x2="1138.75" y2="751.23" xlink:href="#GradientFill_10"/><linearGradient id="GradientFill_5-6" x1="1200.81" y1="763.94" x2="1200.81" y2="742.63" xlink:href="#GradientFill_5"/><linearGradient id="GradientFill_6-6" x1="1192.32" y1="752.54" x2="1192.32" y2="716.72" xlink:href="#GradientFill_6"/><linearGradient id="GradientFill_15-8" x1="1096.45" y1="1025.78" x2="1096.45" y2="998.89" xlink:href="#GradientFill_15"/><linearGradient id="GradientFill_16-8" x1="1086.86" y1="829.09" x2="1086.86" y2="790.12" xlink:href="#GradientFill_16"/><linearGradient id="GradientFill_17-9" x1="1045.22" y1="879.79" x2="1046.81" y2="849.52" xlink:href="#GradientFill_17"/><linearGradient id="GradientFill_18-9" x1="1036.63" y1="860.5" x2="1036.63" y2="822.87" xlink:href="#GradientFill_18"/><linearGradient id="GradientFill_7-9" x1="997.74" y1="927.22" x2="997.74" y2="897.23" xlink:href="#GradientFill_7"/><linearGradient id="GradientFill_8-9" x1="987.6" y1="907.03" x2="987.6" y2="864.39" xlink:href="#GradientFill_8"/><linearGradient id="GradientFill_17-10" x1="1239.27" y1="791.43" x2="1240.7" y2="764.19" xlink:href="#GradientFill_17"/><linearGradient id="GradientFill_18-10" x1="1232.6" y1="775.52" x2="1232.6" y2="740.18" xlink:href="#GradientFill_18"/><linearGradient id="GradientFill_7-10" x1="1140.54" y1="881.59" x2="1140.54" y2="852.63" xlink:href="#GradientFill_7"/><linearGradient id="GradientFill_8-10" x1="1131.51" y1="863.09" x2="1131.51" y2="820.94" xlink:href="#GradientFill_8"/><linearGradient id="GradientFill_11-7" x1="1091.89" y1="924.5" x2="1091.89" y2="897.72" xlink:href="#GradientFill_11"/><linearGradient id="GradientFill_12-7" x1="1082.48" y1="902.44" x2="1082.48" y2="856.88" xlink:href="#GradientFill_12"/><linearGradient id="GradientFill_13-9" x1="1189.98" y1="837.35" x2="1189.98" y2="810.56" xlink:href="#GradientFill_13"/><linearGradient id="GradientFill_14-9" x1="1181.52" y1="825.27" x2="1181.52" y2="777.33" xlink:href="#GradientFill_14"/></defs><g class="cls-2"><g id="Backup"><path class="cls-3" d="M1350,908.67c6.89-9.81,13.88-19.74,21-29.61,2.83-4,6.84-5,8.66-2,4.68,7.72,9.46,15.34,14,23,1.82,3.06,1.13,8.87-1.34,13-6.2,10.32-12.59,20.64-18.78,30.95-2.48,4.13-6.33,4.91-8.36,1.86-5.4-8.09-11-16.17-16.41-24.35C1346.61,918.4,1347.14,912.68,1350,908.67Z"/><path class="cls-4" d="M1354.59,929c6.5-2.68,12.8-8.87,17.85-16.61a82.11,82.11,0,0,0,11.25-26.93c-1.55-2.48-3.09-5.06-4.64-7.64s-5.16-2-7.74,1.65c-6.91,10-13.93,19.92-21,29.62-2.58,3.81-3.09,9-1.13,11.76C1351,923.63,1352.84,926.32,1354.59,929Z"/><path class="cls-5" d="M1378.74,905.47c1.34-2,1.55-1.85,2.27-2.27a87,87,0,0,1-5.47-8.14c-3,5.15-5.78,10.31-8.56,15.27,2.27,3.5,4.64,7,6.91,10.41,0,.11-.43-.74.2.21s.62,5.57-1.23,8.46-4.23,3.77-5.47,2,.1-6.29,1.34-8.25.93-1.55,1.65-2.07c-2.58-3.81-5.06-7.84-7.53-11.65,3.82-7.23,7.74-14.14,11.66-21.36a47.29,47.29,0,0,0,2.89,5c2.16,3.51,4.33,7,6.7,10.52l-.1.11c1,1.65.31,5.16-1.44,8s-4.23,3.87-5.37,2.06S1377.39,907.44,1378.74,905.47Z"/><path class="cls-6" d="M1276.59,918.47c7.88-9,15.75-18.29,23.73-27.44,3.27-3.74,7.77-4.36,10.32-1.24,6.12,7.51,12.21,15.24,18.16,22.8,2.41,3.07,1.82,8.75-1.14,12.59-7.36,9.57-14.63,19.18-22.08,28.68-3,3.81-7.64,4.35-10.32,1.14-6.61-7.94-13.29-15.92-19.91-23.94C1272.68,927.83,1273.32,922.22,1276.59,918.47Z"/><path class="cls-7" d="M1282.57,938.18c7.74-2.06,15.07-7.84,21-15s10.52-16,12.48-25.28c-1.75-2.47-3.92-5.05-6-7.53-2.17-2.89-6.4-2.17-9.29,1.14l-23.83,27.54c-2.89,3.3-3.3,8.26-.93,11.15C1278.24,932.92,1280.51,935.6,1282.57,938.18Z"/><path class="cls-8" d="M1319.1,869.16c7.73-9.19,15.57-18.48,23.32-27.86,3.08-3.73,7.4-4.41,9.49-1.65,5.34,7,10.64,14.12,15.89,21.15,2.08,2.78,1.29,8.22-1.55,12.17-7.06,9.87-14.22,19.62-21.35,29.41-2.88,3.93-7.09,4.82-9.5,1.75-5.84-7.45-11.92-15-17.85-22.49C1315.13,878.59,1315.89,873,1319.1,869.16Z"/><path class="cls-9" d="M1324,888.35c7.33-2.48,14.34-8.57,20-15.89a66,66,0,0,0,12.59-25.18c-1.55-2.27-3.31-4.64-5.16-6.91-2-2.68-5.78-2-8.67,1.55-7.84,9.28-15.58,18.67-23.32,27.86-2.89,3.5-3.51,8.25-1.34,11.14C1320.13,883.4,1322.09,886,1324,888.35Z"/><path class="cls-5" d="M1337,861.11a18.39,18.39,0,0,1,6.81-4.54,15,15,0,0,1-.93,3.2,11.79,11.79,0,0,0-5.88,1.65v-.31Zm5.57-.41a10.47,10.47,0,0,0-5.78,1.75c.83,1.24,1.86,2.48,2.79,3.61a17,17,0,0,0,3-5.36Zm-3.4,6a24,24,0,0,1-4.34,3.82,18.93,18.93,0,0,1,1.34-7.43c.93,1.34,2,2.37,3,3.61Zm-5.16,4.23a19.55,19.55,0,0,1,1.44-7.53c-.1-.21-.21-.1-.31,0a24.86,24.86,0,0,0-3.61,8.36,7.27,7.27,0,0,0,2.48-.83Zm10.52-14.44c-.2,1.13-.62,2.27-.93,3.5a8,8,0,0,1,5.89,3.2c1-1.44,2.16-2.78,3.3-4.33a7.53,7.53,0,0,0-8.26-2.37Zm4.44,7.43a8.86,8.86,0,0,0-5.68-3.2,20.29,20.29,0,0,1-3.4,6c1.24,1.45,2.27,2.89,3.51,4.23,1.86-2.27,3.61-4.64,5.57-7Zm-6.09,7.73c-1.13-1.44-2.27-3-3.4-4.33a21.38,21.38,0,0,1-4.65,4.13,14.66,14.66,0,0,0,2.38,7.32c2-2.37,3.71-4.74,5.67-7.12Zm-6.09,7.74c-1.13,1.55-2.27,2.89-3.3,4.33-2.16-2.78-2.89-6.91-2.16-10.93a15.65,15.65,0,0,0,2.78-1,12.89,12.89,0,0,0,2.68,7.63Zm16.41-19.91c1.75,2.48,2.27,6.5,1.55,10.63a12.19,12.19,0,0,0-2.48,1,16.57,16.57,0,0,0-2.48-7.43c1.14-1.34,2.17-2.79,3.41-4.23Zm-1.65,12.07a17.2,17.2,0,0,0-4.54,4.23c-1.14-1.44-2.17-2.79-3.3-4.33,1.85-2.27,3.61-4.65,5.57-7a13.26,13.26,0,0,1,2.27,7.12Zm-5.06,5a24.51,24.51,0,0,0-3.2,5.78,8.14,8.14,0,0,1-5.77-3c2-2.37,3.81-4.65,5.67-7.12,1.14,1.55,2.17,2.89,3.3,4.33Zm-3.4,6.71a9.28,9.28,0,0,1-6-3.3c-1.13,1.55-2.27,2.89-3.3,4.33a8.42,8.42,0,0,0,8.36,2.58,21.78,21.78,0,0,1,.93-3.61Zm11.55-12.28a22.08,22.08,0,0,0-2.47,1,18.36,18.36,0,0,1-1.24,7.64l.1-.11a24.71,24.71,0,0,0,3.61-8.56Zm-4.43,9a21.07,21.07,0,0,0,1.34-7.53,23.44,23.44,0,0,0-4.13,3.81c.93,1.24,1.86,2.58,2.79,3.72Zm-.83,1.85.11-.1a9.53,9.53,0,0,1-5.89,1.55,18.41,18.41,0,0,0-.72,3.2,14.74,14.74,0,0,0,6.5-4.65Zm-5.57.62a10.3,10.3,0,0,0,5.88-1.75c-1-1.24-1.86-2.48-2.79-3.71A28.9,28.9,0,0,0,1343.76,882.36Z"/><path class="cls-10" d="M1200.24,841.71c9-8,18.06-16,27.13-24,3.72-3.29,9-3.84,11.87-1.24,7.24,6.58,14.27,13.17,21.36,19.81,2.82,2.65,2.16,7.54-1.35,11-8.56,8.57-17.23,17-25.79,25.59-3.51,3.51-8.84,4-11.87,1.14-7.39-7-14.9-14.09-22.59-21.26C1196,849.91,1196.52,845,1200.24,841.71Z"/><path class="cls-11" d="M1207.25,859.35c8.67-2,17.23-7.11,24-13.51s12.08-14.24,14.55-22.18l-7.22-6.61c-2.48-2.47-7.33-1.85-10.63,1l-27.24,24.15c-3.3,2.89-3.71,7.53-1,10C1202.2,854.51,1204.78,856.88,1207.25,859.35Z"/><path class="cls-5" d="M1214.06,853.89c9.29-8.36,26.25-6.2,29.93-2.79s.1.1.2.1c-1.45,1.45-3,2.79-4.44,4.23,0,.11,2.54,2.44-.2-.1s-15-4-21.77,2.06c-1.14-1.13-2.38-2.37-3.72-3.5Zm11.76,4.74c-1.85,1.76-2,4.28-.51,5.68s4.23,1.13,6-.62,2.12-4.39.62-5.78-4.23-1-6.09.72Zm-19.19-11.76c1.14,1.14,2.38,2.37,3.72,3.51,11.76-10.63,33.47-8,38.18-3.61s.1.1.1,0c1.54-1.34,3.09-2.89,4.54-4.33,0,.1,5.47,5.16-.21-.11S1221.08,834,1206.63,846.87Z"/><path class="cls-12" d="M1249,798.69c9-7.88,18.22-15.84,27.45-23.73,3.67-3.15,8.89-4,11.45-1.65,6.52,5.85,13,11.72,19.4,17.64,2.51,2.34,1.78,7.15-1.65,10.52-8.64,8.49-17.37,17.1-25.9,25.49-3.54,3.48-8.74,4.3-11.45,1.75-7-6.53-13.91-13-21-19.5C1244.42,806.61,1245.29,802,1249,798.69Z"/><path class="cls-13" d="M1254.92,815.2c8.57-2.27,17.13-7.43,23.83-13.73,6.92-6.29,12.39-13.93,15.07-21.66l-6.5-5.88c-2.27-2.07-6.81-1.55-10.22,1.44-9.28,7.84-18.47,15.79-27.54,23.63-3.41,3-4.13,7.32-1.66,9.59S1252.65,812.93,1254.92,815.2Z"/><path class="cls-14" d="M1259.46,805.6l24-21.56h0a4.29,4.29,0,0,1,2.79-1.24,2.46,2.46,0,0,1,2.06.51h0v.11c2.79,2.37,5.37,4.85,8.15,7.32h0a2.4,2.4,0,0,1,.62,2.07h0a4.3,4.3,0,0,1-1.34,2.37h-.1l-23.53,22.29h.11a5.79,5.79,0,0,1-2.58,1.34,3.15,3.15,0,0,1-2.27-.62h0c-3-2.68-5.68-5.26-8.57-8h0a2.26,2.26,0,0,1-.72-2.16,3.18,3.18,0,0,1,1.34-2.48Zm1.65,1c5.68-1.75,11.46-3.71,17-5.67,1.86-4.85,3.61-9.8,5.78-14.86-7.64,6.81-15.17,13.72-22.81,20.53ZM1286.39,785c-1.13,2.88-2.27,6-3.4,8.87,3.81-.52,7.74-1.14,11.45-1.65-2.58-2.38-5.26-4.65-7.94-7.12V785h-.11Zm-4.13,10.93c-.92,2-1.54,3.82-2.37,5.88,0,.21-.2.31-.2.62-.42.1-.42.21-.73.31-2.16.72-4.43,1.55-6.81,2.17-.41,3.92-.92,7.63-1.34,11.25h0c7.84-7.23,15.58-14.55,23.32-21.88-4,.62-7.94,1.14-11.87,1.65Zm-12.38,9.8c-3,1.24-6.19,2.07-9.18,3.1,2.68,2.37,5.36,4.75,7.84,7.12C1269,812.62,1269.47,809.21,1269.88,805.7Z"/><path class="cls-15" d="M1152.05,885.36q13.4-12.3,26.93-24.46c3.58-3.23,9-3.66,12.07-.82,7.69,7.17,15.38,14.33,22.91,21.56,3,2.88,2.58,8-.93,11.45-8.56,8.57-17.23,17-25.9,25.69-3.4,3.41-8.86,3.81-12.07.73-7.73-7.44-15.81-15-23.84-22.7C1148.11,893.84,1148.39,888.71,1152.05,885.36Z"/><path class="cls-16" d="M1159.89,903.82c8.88-1.75,17.44-6.7,24.15-13.2,6.7-6.3,11.86-14.45,14-22.7-2.48-2.48-5.06-4.85-7.64-7.22s-7.53-2.27-10.83.62l-27,24.55c-3.19,3-3.5,7.74-.61,10.42C1154.53,898.87,1157.21,901.35,1159.89,903.82Z"/><path class="cls-5" d="M1177.23,878.75c.61-4,4.54-7.32,8.77-7.63a6.52,6.52,0,0,1,7.32,6.81c-.31,3.56-2,5.26-4.33,6.91-.21,2-.31,3.82-.52,5.78a6.16,6.16,0,0,1,3.41,6.29c-.16,3.51-4.23,8.15-8.67,8.46s-7.94-2.89-7.53-7.12c.31-3.09.51-6.29.72-9.39-6.81-3.5-5.78.42-7.53,5.78-.72,1.65-1.65,3.1-3.61,3.3-.42-.31-.83-.82-1.34-1.24a3,3,0,0,0,3.5-2.27c1.86-5.15,1.24-10.93,9.08-7,.31-2.79.52-5.57.73-8.15v-.52Zm8.77,3.1a9.54,9.54,0,0,0,.2-2.58,8.09,8.09,0,0,0,2.79-.21,8.22,8.22,0,0,1,.31-2.16c-.93.1-1.86.1-2.89.2a10.27,10.27,0,0,0,.21-2.58c-.62.1-1.55.21-2.27.31-.11.83,0,1.65-.11,2.37l-2.78.31c-.11.73-.11,1.55-.21,2.17a23.81,23.81,0,0,0,2.79-.21c-.21.93-.21,1.86-.31,2.58.82,0,1.54-.2,2.27-.2Zm-7.23,16.2a1.24,1.24,0,0,0,1.45,1.34c.82-.1,1.55-.72,1.44-1.45a1.17,1.17,0,0,0-1.44-1.34,1.44,1.44,0,0,0-1.45,1.45Zm6.61-.52a1.17,1.17,0,0,0,1.34,1.24,1.86,1.86,0,0,0,1.65-1.45c0-.82-.52-1.23-1.34-1.23a1.75,1.75,0,0,0-1.65,1.44Zm-2.17,4.75a1.66,1.66,0,0,0,1.55-1.55c.1-.83-.41-1.34-1.35-1.24a1.66,1.66,0,0,0-1.54,1.55c0,.77.52,1.24,1.34,1.24Zm.41-6.3a1.67,1.67,0,0,0,1.65-1.44,1.32,1.32,0,0,0-1.44-1.34,1.52,1.52,0,0,0-1.55,1.34A1.3,1.3,0,0,0,1183.62,896Z"/><path class="cls-17" d="M1239.44,879c8.57-8.56,17-17.23,25.59-25.8,3.51-3.5,8.54-4.1,11-1.34,6.58,7.25,13.25,14.2,19.92,21.46,2.51,2.75,1.92,7.82-1.34,11.56-8,9.15-15.92,18.33-24,27.34-3.23,3.58-8.3,4.16-11,1.24-7-7.5-14.19-15-21.35-22.7C1235.47,887.78,1235.94,882.47,1239.44,879Z"/><path class="cls-18" d="M1246.05,897.63c8.15-2.06,16.2-7.53,22.49-14.23a56.77,56.77,0,0,0,13.62-23.94c-2.16-2.27-4.43-4.75-6.71-7-2.27-2.58-6.81-2.06-10,1.14-8.46,8.66-17,17.23-25.49,25.89-3.09,3.1-3.51,7.95-1.14,10.63S1243.67,895.16,1246.05,897.63Z"/><path class="cls-5" d="M1246.36,884.22c1.34-1.55,2.78-3,4.33-4.54a39.62,39.62,0,0,0,3.51,2c6-6.19,12.07-12.48,18-18.88,1.76,2.37,3.51,4.75,5.47,7-4.44,6.19-8.77,12.48-13.1,18.67-.72,1.14.62,3.1,1.75,2.17,5-5.37,10.11-10.94,15.07-16.61.62.72,1.13,1.34,1.75,2-5.36,6.08-10.83,12-16.1,17.85-2.88,2.47-6.6-1.55-5.77-4.13-3.72-2-7.23-3.92-10.94-5.88a4.38,4.38,0,0,1-1,1.34A13.94,13.94,0,0,1,1246.36,884.22Z"/><path class="cls-5" d="M1269.88,891.34c1.4-1.6,3.41-1.75,4.44-.62,1.24,1.24.93,3.41-.41,5a3.16,3.16,0,0,1-4.65.51C1268.23,895.06,1268.49,892.94,1269.88,891.34Z"/><path class="cls-5" d="M1280.82,879.37c1.39-1.5,3.51-1.86,4.54-.72s.83,3.51-.52,5.05-3.3,1.66-4.54.42C1279.27,883,1279.43,880.87,1280.82,879.37Z"/><path class="cls-19" d="M1285.36,832.63c8.39-8.53,16.92-17.33,25.48-25.89,3.41-3.41,8.24-4.21,10.53-1.66,5.86,6.53,11.8,13,17.64,19.4,2.31,2.54,1.52,7.61-1.65,11.25-8,9.15-15.82,18.42-23.63,27.55-3.23,3.77-8.11,4.59-10.52,2-6.56-7.17-13.06-14.09-19.61-21.15C1281.07,841.35,1281.88,836.17,1285.36,832.63Z"/><path class="cls-20" d="M1290.73,850.48c7.94-2.47,15.78-7.94,22-14.75s11.46-15.27,13.93-23.63c-2-2.06-3.92-4.23-5.88-6.4-2.06-2.37-6.4-1.65-9.49,1.45-8.46,8.67-17.13,17.33-25.49,25.89-3.3,3.31-3.81,7.85-1.54,10.43C1286.39,845.84,1288.56,848.21,1290.73,850.48Z"/><path class="cls-5" d="M1302.59,832.74c1.9-2,3.92-4.13,5.78-6.19-1.14-1.35-2.12-2.63-3.3-3.82-.57-.57-.21-1.45.41-2.06h0c.62-.83,1.49-1,2.06-.42,1.19,1.19,2.17,2.58,3.41,3.82,1.13-.82,2.72-1,3.51-.1,3.85,4.19,7.58,8.31,11.24,12.38,1.08,1.2.76,3.43-.61,4.95-2.45,2.71-4.78,5.34-7.13,7.94-1.37,1.53-3.34,1.92-4.33.83-3.86-4.28-7.69-8.5-11.66-12.79-1-1.07-.78-3.06.62-4.54Zm1.45,1.54a.77.77,0,0,0-.11,1c1.92,2,3.72,4.12,5.57,6.19,2.79-3,5.57-6.19,8.46-9.29-1.85-2.06-3.55-4.08-5.46-6.09-.26-.26-.72,0-1,.31C1309,829.11,1306.42,831.72,1304,834.28Z"/><path class="cls-21" d="M1193.53,925.29c8.67-8.67,17.13-17.34,25.69-25.9,3.51-3.51,8.76-3.9,11.56-.93,7.21,7.65,14.36,15.36,21.56,23,2.7,2.87,2.33,8.21-.93,11.76-8.2,8.93-16.25,18.2-24.45,27.14-3.26,3.54-8.52,3.87-11.35.92-7.69-8-15.29-16.07-22.8-24C1189.9,934.17,1190.12,928.69,1193.53,925.29Z"/><path class="cls-22" d="M1201,944.58c8.56-1.86,16.61-7.12,23-13.72a54.58,54.58,0,0,0,13.41-24.15c-2.48-2.47-4.85-5.05-7.22-7.63-2.58-2.79-7.23-2.38-10.42.82-8.57,8.57-17,17.23-25.7,25.9-3.09,3.1-3.4,8.05-.62,10.83C1195.9,939.32,1198.38,942,1201,944.58Z"/><path class="cls-23" d="M532.24,860.39c5.1-6.85,10.38-13.78,15.58-20.74,2.13-2.85,6.45-2,9.6,1.75,7.9,9.45,15.81,19.05,23.63,28.48,3.12,3.77,3.72,9.16,1.44,12.07-5.88,7.51-12,14.89-17.75,22.29-2.36,3-6.68,2.33-9.59-1.65-7.2-9.85-14.26-19.87-21.57-29.92C530.77,868.79,530.12,863.24,532.24,860.39Z"/><path class="cls-24" d="M541.12,882.16c6.7,0,12.58-3.72,16.81-9.19a35,35,0,0,0,6.92-21.77c-2.69-3-5.26-6.19-7.84-9.38-2.89-3.41-6.71-3.92-8.57-1.45-5.26,6.91-10.42,13.93-15.68,20.84-2,2.58-1.45,7.43,1.24,11C536.37,875.66,538.85,879,541.12,882.16Z"/><path class="cls-14" d="M542.15,872.05c4.85-6.5,9.8-13.11,15-19.5h0c.51-.73,1-1,1.86-.73a2.86,2.86,0,0,1,2.27,1.45h0c3.4,4,6.7,8.05,10.11,12.17h0a6.22,6.22,0,0,1,1.24,2.79h0a4.05,4.05,0,0,1-.62,2.58h0c-5.37,6.81-10.63,13.51-15.79,20.32h0a1.58,1.58,0,0,1-2,.62,2.84,2.84,0,0,1-2.17-1.44h0c-3.19-4.34-6.19-8.46-9.39-12.69h0a8.19,8.19,0,0,1-1.13-3,4.32,4.32,0,0,1,.62-2.57Zm1.65,1.85c4.43-.41,8.87-1.13,13.41-1.54.41-5.78.52-11.46.72-17.13-4.74,6.19-9.49,12.38-14.13,18.67ZM560,854.61c-.1,3.4-.21,6.71-.52,10,3.51.82,7,1.55,10.42,2.16-3.3-4.12-6.5-8.15-9.8-12h0l-.1-.21Zm-.52,12.48c-.21,2.38-.21,4.54-.51,6.71a1.22,1.22,0,0,1,0,.62.46.46,0,0,1-.62.2c-1.65.21-3.41.62-5.26.73.51,4.74,1.13,9.28,1.54,13.82l.1-.1h0c5.06-6.71,10.32-13.21,15.38-19.91-3.51-.62-7.12-1.34-10.63-2.07Zm-8.15,8.36a59,59,0,0,1-7.33.93c3,3.92,5.89,7.74,8.67,11.55C552.26,883.91,551.74,879.78,551.33,875.45Z"/><path class="cls-25" d="M506.45,899.8c4.52-7.44,9.1-15,13.72-22.6,1.88-3.07,5.87-2.05,8.67,1.86,7.21,10.12,14.41,20.08,21.36,30.13,2.74,4,3.17,9.65.92,13-5.28,7.89-10.63,16-16,23.83-2.18,3.19-6,2.67-8.46-1.54-6.17-10.43-12.55-21-19-31.47C505.14,908.86,504.57,902.88,506.45,899.8Z"/><path class="cls-26" d="M514.19,922.7c6.08,0,11.24-4,15-10a43.53,43.53,0,0,0,6.39-23.32c-2.37-3.1-4.74-6.5-7.12-9.91-2.58-3.71-6.08-4.33-7.63-1.54C516,885.56,511.5,893.2,507,900.62c-1.75,2.79-1.34,8,1,11.67C510,915.9,512.22,919.4,514.19,922.7Z"/><path class="cls-5" d="M526.15,909.91c-.92-1.44-2-2.89-3-4.33.41-.62.72-1.14,1-1.65a57.5,57.5,0,0,1-3.09-4.85l.93-1.55c-.52-.72-.83-1.44-1.34-2.06.51-.73.93-1.55,1.44-2.27.31-.52.62-1,1-1.65h0c2.07,3,4.23,6,6.3,9.07,1-1.85,2.16-3.61,3.3-5.36,3.61,5.26,7.32,10.52,10.83,15.58-.41.62-.82,1.24-1.13,1.75-3-4.43-6.09-8.87-9.19-13.51h0c-1.23,1.86-2.37,3.61-3.4,5.47h0c-2.07-3.1-4.23-6.09-6.19-9.19-.52.73-.93,1.55-1.45,2.27,1.45,2.07,2.89,4.34,4.34,6.61-.31.51-.62,1-1,1.65.72.82,1.23,1.75,1.85,2.58a7.56,7.56,0,0,0-1.13,1.54,14.35,14.35,0,0,0,1.34,2.17c-.72,1.14-1.34,2.37-2.17,3.61,2.07,3.2,4,6.4,6,9.39,1.13-1.75,2.37-3.61,3.5-5.36.52.72.93,1.34,1.45,2.06,1.86-3.1,3.92-6.19,6-9.29.42.73,1,1.45,1.55,2.17-2.48,3.51-4.74,7.22-7.22,10.73a14.06,14.06,0,0,1-1.24-2.06c-.83,1.44-1.86,2.68-2.58,4a14.35,14.35,0,0,1,1.34,2.17c-1.65,2.27-3.2,4.85-4.85,7.32-3.4-5.36-6.6-10.73-9.9-16.09,2.27-3.51,4.43-7.12,6.7-10.94Zm-4.53,11.45c2.57,4,5,7.95,7.32,11.87a49.24,49.24,0,0,0,2.89-4.13c-2.48-4-5-7.84-7.43-11.76Z"/><path class="cls-27" d="M571.24,912.39c5.9-7.5,11.89-14.95,18-22.49,2.39-3,7-2.47,10.11,1.13,8,9.3,16.2,18.68,24.25,28.06,3.09,3.61,3.66,9.22,1,12.38C618,939.36,611.45,947.23,605,955c-2.73,3.27-7.49,2.65-10.32-1-7.49-9.74-15.12-19.47-22.6-29.1C569.13,921.09,568.78,915.52,571.24,912.39Z"/><path class="cls-28" d="M580,934.06c7.33-.42,13.73-4.44,18.47-10.43a37.14,37.14,0,0,0,8.36-22.8q-4-4.64-8.05-9.28c-2.88-3.31-6.91-3.72-9.08-.93-6,7.43-12,15.06-18,22.49-2.37,2.79-1.86,7.74.83,11.25C575.06,927.66,577.54,930.75,580,934.06Z"/><path class="cls-29" d="M819.81,848.52c8.5-6.76,17.1-13.65,25.79-20.43,3.49-2.71,9.46-2.54,13.21.42,9.46,7.46,19.2,14.61,28.48,22,3.73,3,3.63,7.87,0,10.84-8.75,7.14-17.54,14.45-26.21,21.66a10.31,10.31,0,0,1-13-.31c-9.14-7.68-18.53-15.63-27.86-23.42C816.45,856.1,816.24,851.36,819.81,848.52Z"/><path class="cls-30" d="M829.92,866.37a47.46,47.46,0,0,0,25-10.11c6.6-5.37,11.55-12.48,12.59-20-3.1-2.37-6.19-4.85-9.29-7.32-3.61-2.68-8.77-2.79-12-.21-8.67,6.81-17.33,13.62-25.9,20.33-3.2,2.37-3,6.81.42,9.7C823.83,861.42,826.93,863.9,829.92,866.37Z"/><path class="cls-5" d="M840.34,844.6l13.21,5.68,10-8.15c-.62,3.92-1.45,7.63-2,11.45,4.33,1.75,8.66,3.61,13,5.47-4.85.51-9.6,1.13-14.35,1.65-.51,3.92-1.23,7.74-1.85,11.66-2.27-3.51-4.54-7.23-6.81-10.63-4.85.51-9.5,1-14.24,1.44,3.3-2.68,6.7-5.26,10-8.15C845.09,851.72,842.82,848.21,840.34,844.6Z"/><path class="cls-31" d="M775.34,886.8c8.21-7,16.33-14.42,24.66-21.56,3.33-2.87,9.08-2.8,12.79.41,9.3,8,18.68,15.77,27.86,23.63a7.42,7.42,0,0,1,.21,11.45c-8.38,7.51-16.9,15.09-25.28,22.59a9.56,9.56,0,0,1-12.69-.41c-9-8.25-18.17-16.6-27.24-24.86C772,894.75,771.89,889.76,775.34,886.8Z"/><path class="cls-32" d="M785.24,905.68a42.52,42.52,0,0,0,24-10.62c6.4-5.58,11.15-12.9,12.18-21-3-2.48-6.09-5.16-9.18-7.84-3.41-2.89-8.57-3-11.66-.32-8.26,7.23-16.62,14.35-24.77,21.47-2.89,2.68-2.89,7.11.52,10.21C779.36,900.32,782.35,903.1,785.24,905.68Z"/><path class="cls-5" d="M817.85,890.51c1.6-1.39,1.85-1.34,3-1.44-3.41-2.68-6.91-5.57-10.42-8.46-3.3,3.92-6.61,7.74-9.8,11.66,4.12,3.71,8.15,7.22,12.38,10.73.1,0-.68-.73.41.2s1.5,4.9-.93,7-5.78,2.37-7.74.62-1-5.62.62-7.12,1.34-1.13,2.27-1.44l-13.51-12q6.64-8.05,13.31-16.1c1.85,1.76,3.81,3.3,5.67,5,4.13,3.61,8.57,7.32,12.8,10.83l.1.2c1.75,1.65,1.44,4.54-.93,6.61s-5.93,2.63-8,.82S816.25,891.91,817.85,890.51Z"/><path class="cls-33" d="M592.71,790.64c6.38-5.79,12.81-11.54,19.19-17.33,2.59-2.36,7.65-1.56,11.35,1.65,9.4,8.14,18.76,16.12,28,24.14,3.69,3.22,4.45,7.86,1.65,10.42-7,6.41-13.94,12.88-20.84,19.19-2.8,2.57-7.9,1.91-11.35-1.55-8.62-8.61-17.5-17.26-26.31-26C590.89,797.72,590.11,793,592.71,790.64Z"/><path class="cls-34" d="M603.44,809.32a28.42,28.42,0,0,0,20.22-7.64A24,24,0,0,0,632,783.21c-3.2-2.47-6.3-5.16-9.29-7.94-3.4-2.89-7.84-3.41-10.21-1.24l-19.09,17.23c-2.37,2.17-1.86,6.4,1.34,9.49C597.76,803.74,600.65,806.63,603.44,809.32Z"/><path class="cls-5" d="M625.21,793.74a16.21,16.21,0,0,0,.31-2c.31-2.16.62-4.53.93-6.8,2.16,2.06,4.33,3.81,6.5,5.77,2.27,2.17,4.43,3.93,6.6,5.88-2.58.31-5.06.73-7.43,1L630,798l5.58,4.95c-5.47,4.85-10.84,9.8-16.2,14.75-5.06-4.85-10.12-9.7-15.17-14.65l15.58-14.34C621.49,790.43,623.35,792.09,625.21,793.74Z"/><path class="cls-35" d="M627.37,760.1c6.86-5.1,13.78-10.38,20.75-15.58,2.84-2.12,8.38-1.48,12.27,1.34,10,7.29,19.89,14.59,29.72,21.77,4,2.93,4.78,7.14,1.65,9.6-7.39,5.8-14.78,11.85-22.18,17.64-3,2.37-8.63,1.82-12.39-1.34-9.34-7.88-18.82-15.94-28.27-23.83C625.16,766.55,624.53,762.22,627.37,760.1Z"/><path class="cls-36" d="M638.93,777.12a34.46,34.46,0,0,0,21.77-6.91c5.47-4.23,9.08-10,9.08-16.71-3.2-2.27-6.5-4.75-9.8-7.22-3.71-2.58-8.56-3.1-11.14-1.14-6.92,5.26-13.93,10.42-20.74,15.58-2.58,2-2,5.67,1.44,8.56C632.64,772,635.73,774.65,638.93,777.12Z"/><path class="cls-5" d="M644.81,773.93c7.53-5.57,26.1-.48,31.06,3.4s.21.21.21.31l-3.72,3.1c-.1-.21,3.32,2.48-.2-.31s-17.13-6.71-22.6-2.58c-1.65-1.24-3.2-2.58-4.75-3.92Zm13.42,6.5c-1.55,1.24-1.19,3.5.72,5.05s4.69,1.91,6.19.62,1.18-3.51-.72-5.05-4.64-1.86-6.19-.62Zm-23-14.45c1.54,1.34,3.09,2.68,4.74,3.92,9.5-6.91,33.43-.42,39.73,4.44s0,.21.2.31c1.35-.93,2.58-2,3.92-2.89-.2-.1,7.39,5.37-.31-.41S646.67,757.73,635.22,766Z"/><path class="cls-37" d="M664.93,732.45c7.44-4.52,15-9.17,22.6-13.72,3.1-1.85,8.93-1.17,13.1,1.34,10.59,6.36,21.18,12.66,31.47,19,4.15,2.55,4.76,6.31,1.55,8.46-8,5.38-16,10.83-23.94,16.1-3.23,2.16-9,1.77-12.89-1-9.92-7.11-20-14.14-30.13-21.36C662.77,738.43,661.85,734.32,664.93,732.45Z"/><path class="cls-38" d="M677.11,747.82c9.18,0,17.33-2.47,23.21-6.29,6.09-3.82,10.12-9,10-15-3.3-2-6.91-4.13-10.32-6.29-3.81-2.27-9-2.69-11.66-1-7.63,4.54-15.16,9.19-22.69,13.83-2.89,1.65-2.27,5.16,1.44,7.74C670.4,743.28,673.81,745.66,677.11,747.82Z"/><path class="cls-5" d="M695.58,739.67c-1.45-.93-2.89-2-4.44-2.89l1.55-.93c-1.65-1-3.1-2.06-4.75-3.19.52-.31,1.24-.62,1.76-.93-.73-.52-1.35-.93-2.17-1.45a16.83,16.83,0,0,1,2.27-1.44c.52-.31,1-.62,1.65-1h0c3.3,2,6.29,3.92,9.49,5.88,1.86-1,3.61-2.17,5.37-3.3,5.36,3.3,10.73,6.7,15.89,9.9a9.62,9.62,0,0,1-1.65,1.24c-4.44-3-9.08-5.68-13.62-8.67h0c-1.86,1.24-3.72,2.27-5.47,3.41h0c-3.1-2.07-6.19-3.92-9.39-6a19.62,19.62,0,0,0-2.17,1.34c2.17,1.55,4.44,3,6.71,4.44-.62.41-1.14.72-1.65,1,1,.52,1.75,1,2.68,1.55a11.24,11.24,0,0,0-1.65,1.24c.62.41,1.34.93,2,1.34a40.37,40.37,0,0,0-3.51,2.06c3.2,2.27,6.3,4.34,9.29,6.5,1.86-1.24,3.61-2.37,5.47-3.61a13.54,13.54,0,0,1,2,1.34c3.2-2,6.19-3.92,9.28-6a26.84,26.84,0,0,1,2.27,1.44c-3.71,2.27-7.22,4.75-10.73,7a15.67,15.67,0,0,1-2.16-1.34c-1.34.93-2.58,1.75-3.82,2.58.62.41,1.34.93,2,1.34l-7.33,4.85c-5.26-3.51-10.21-7.12-15.47-10.73,3.4-2.38,7-4.54,10.42-7Zm-6.92,7.43c3.93,2.68,7.64,5.26,11.46,7.94,1.44-1,2.89-1.85,4.23-2.78-3.82-2.68-7.64-5.16-11.56-7.84C691.45,745.35,690,746.17,688.66,747.1Z"/><path class="cls-39" d="M561,824.17c5.8-6.38,11.54-12.81,17.33-19.19,2.36-2.59,7.09-1.82,10.53,1.65,8.73,8.81,17.36,17.73,25.9,26.41,3.42,3.49,4.1,8.55,1.44,11.46-6.31,6.89-12.78,13.84-19.09,20.74-2.56,2.8-7.33,2.17-10.52-1.55-8-9.28-15.9-18.67-24-28.07C559.37,831.92,558.67,826.77,561,824.17Z"/><path class="cls-40" d="M570.94,844.29a24,24,0,0,0,18.47-8.36,28.36,28.36,0,0,0,7.53-20.11c-2.69-2.79-5.57-5.68-8.46-8.77-3.2-3.1-7.43-3.62-9.5-1.35l-17.33,19.2c-2.06,2.26-1.65,6.8,1.34,10.11C565.57,838.2,568.25,841.3,570.94,844.29Z"/><path class="cls-5" d="M581.15,822.73c-.52-3.92,2.06-6.6,5.88-6s7.74,5.06,8.15,8.46-.62,5-2.47,6.09c.2,1.75.51,3.82.72,5.88a8.53,8.53,0,0,1,4.13,6.92c.3,3.5-2.17,7.32-6.09,6.7s-7.33-4.54-7.84-8.77c-.52-3.09-.73-6.09-1.24-9.39-6.5-5-4.95-.62-5.37,4.34-.2,1.65-.82,2.78-2.37,2.68a19.45,19.45,0,0,1-1.34-1.55c1.75.52,2.27-.31,2.37-1.65.72-4.75-.93-10.73,6.5-5.26-.21-2.68-.62-5.37-.93-8.05a1,1,0,0,1-.1-.52v.11Zm8.36,4.95a15.45,15.45,0,0,0-.52-2.58c.83.1,1.76.31,2.48.41a17.53,17.53,0,0,0-.31-2.26c-.72-.11-1.55-.11-2.37-.21a8.53,8.53,0,0,0-.31-2.68,13.18,13.18,0,0,1-2-.21c.11.82.11,1.65.21,2.37-.82,0-1.44-.2-2.16-.2a11.28,11.28,0,0,0,.3,2.06,10.56,10.56,0,0,0,2.28.52,9.07,9.07,0,0,1,.2,2.37c.83.2,1.55.31,2.17.41Zm-3.2,14.76a1.89,1.89,0,0,0,1.55,1.75,1,1,0,0,0,1-1.24,2.22,2.22,0,0,0-1.55-1.75.88.88,0,0,0-1,1.24Zm5.67.82a1.78,1.78,0,0,0,1.45,1.65,1.14,1.14,0,0,0,1.24-1.24,2,2,0,0,0-1.55-1.54c-.78-.16-1.34.31-1.14,1.13Zm-1,4.54a1.21,1.21,0,0,0,1.14-1.34,2.13,2.13,0,0,0-1.45-1.65c-.93-.11-1.29.45-1.13,1.34A1.85,1.85,0,0,0,591,847.8Zm-.72-6.4a1.09,1.09,0,0,0,1.24-1.23,1.86,1.86,0,0,0-1.55-1.55c-.83-.21-1.29.25-1.13,1.13S589.61,841.4,590.23,841.4Z"/><path class="cls-41" d="M639.55,836c7-6.41,14.05-13,21.05-19.4,2.9-2.66,8.09-2.32,11.66.83,9.33,8.2,18.51,16.35,27.75,24.55,3.56,3.15,4.12,8.24,1,11.14-7.45,7-14.95,13.94-22.29,20.85-3.08,2.9-8.41,2.32-11.76-1-8.72-8.71-17.61-17.37-26.42-26.1C637.21,843.53,636.75,838.6,639.55,836Z"/><path class="cls-42" d="M649.87,855.12a32.69,32.69,0,0,0,21.36-9,27.88,27.88,0,0,0,9.7-20c-3.1-2.68-6.2-5.36-9.19-8.15-3.3-2.89-7.94-3.3-10.52-.93-7,6.61-14.14,13.11-21.05,19.61-2.58,2.37-2.17,6.81.82,9.8S647,852.24,649.87,855.12Z"/><path class="cls-5" d="M674.32,867l19.09-17.85c-4.23-2.17-17.33.83-19.19-9.49a9.61,9.61,0,0,0-1.55-4.64c-4.74-6.09-10.52-8.26-15.37-4.54a15.47,15.47,0,0,0-3,3.3c-2.68,3.61-2.16,6.71,1.35,10.93a2.31,2.31,0,0,0,.72.73,2.83,2.83,0,0,1,1.13,1.23c.21,1.14.31,2.17.62,3.41a1.25,1.25,0,0,0,1.86,1c.1-.1.72-.51,1.13,0a4.07,4.07,0,0,0,.52.72.56.56,0,0,0,.52.31c.31.11.51.31.82.21l.42.41c.2.21.3.21.41.21a.67.67,0,0,0,.62,0,.44.44,0,0,1,.41.41c1,1.55,2.27,2.17,3.61,1.14,1.24-.62,2.89-1.14,4.23.2C676.18,857.6,675,863,674.32,867Z"/><path class="cls-43" d="M604.16,873.08c6.42-7,13-14.05,19.4-21.05,2.66-2.91,7.6-2.44,10.93.93q13.11,13.21,26.11,26.41c3.32,3.38,3.83,8.79,1,11.76-7,7.45-13.94,15-20.94,22.39-2.81,3-7.89,2.43-11.05-1.13-8.19-9.24-16.26-18.5-24.55-27.76C601.92,881.1,601.5,876,604.16,873.08Z"/><path class="cls-44" d="M613.75,893.3a27.69,27.69,0,0,0,19.92-9.6,33.37,33.37,0,0,0,9.08-21.46L634,853.47c-3-3-7.43-3.4-9.8-.82-6.51,6.91-13,14-19.5,20.94-2.38,2.58-2,7.23.92,10.53C608.29,887.21,611,890.31,613.75,893.3Z"/><path class="cls-14" d="M648.12,881.23c.92.31,2,.51,2.78.72a23.51,23.51,0,0,1-1.55,7.84,15.71,15.71,0,0,1-3.61,5.68,15,15,0,0,1-7.53,4.54,14.12,14.12,0,0,1-8.46-.72,20.13,20.13,0,0,1-7.53-5.27,23.24,23.24,0,0,1-5-8.56,17.75,17.75,0,0,1-.62-9.6,15.18,15.18,0,0,1,3.82-8,14.13,14.13,0,0,1,6.4-3.82,11.39,11.39,0,0,1,7.12.2,16.22,16.22,0,0,1,6.6,4.13,24,24,0,0,1,2.79,3.72,14.79,14.79,0,0,1,1.55,3.92,8.35,8.35,0,0,1,.41,3.4,9.62,9.62,0,0,1-.41,2.89,5.84,5.84,0,0,1-1.14,2.17,2.92,2.92,0,0,1-1.55.93,5.69,5.69,0,0,1-1.54.1,3.52,3.52,0,0,1-1.55-.41,4,4,0,0,1-.93-.93,9.28,9.28,0,0,1,.31,4,4.54,4.54,0,0,1-1.24,3.2,4.72,4.72,0,0,1-4.44,1.44,8.7,8.7,0,0,1-5-3.09,17.29,17.29,0,0,1-3.2-5.37,11.28,11.28,0,0,1-.93-5.57,7.44,7.44,0,0,1,1.65-4,3.42,3.42,0,0,1,2.69-1.24,4.46,4.46,0,0,1,2.58.52,22,22,0,0,1-1.34-2.07c1.13-1.13,2.06-2.27,3.09-3.3,1.65,3,3.3,5.68,4.85,8.46.31.52.62,1.14.93,1.55a8.38,8.38,0,0,1,.83,1.24c.2.1.35.56.61.82a2,2,0,0,0,1.24.62c.23,0,.72-.31.93-.51a2.56,2.56,0,0,0,.72-2,10.47,10.47,0,0,0-1.13-4.24,26.37,26.37,0,0,0-3.1-4.33,12,12,0,0,0-5.47-3.51,11,11,0,0,0-5.47-.1,12.94,12.94,0,0,0-4.84,3.3,12.55,12.55,0,0,0-3.31,6.61,15.47,15.47,0,0,0,.83,8,18.33,18.33,0,0,0,4.23,7.33,15.38,15.38,0,0,0,5.16,4,14,14,0,0,0,5.16,1.34,9.67,9.67,0,0,0,4.23-.62,14.36,14.36,0,0,0,5-3.5,12,12,0,0,0,3.1-5.27,17,17,0,0,0,1.14-6.7Zm-12.49,6.19a1.55,1.55,0,0,0,.41-1.14,2.64,2.64,0,0,0-.1-1.54c-.1-.52-.41-1.14-.72-2.07-.62-1.13-1.14-2.27-1.76-3.3a19.22,19.22,0,0,0-1.65-2.47,2.38,2.38,0,0,0-1.65-.83,1.82,1.82,0,0,0-1.34.52c-.82.82-.72,2.37,0,4.64a12.77,12.77,0,0,0,3,5.26c.78.77,1.45,1.34,2.17,1.34A1.39,1.39,0,0,0,635.63,887.42Z"/><path class="cls-45" d="M677.52,801.58c7.44-6,14.88-12,22.49-18,3-2.37,8.62-2,12.39.93,9.64,7.5,19.53,14.93,29.2,22.5,3.64,2.85,4.19,7.69,1,10.31Q730.81,827.2,719,837.07c-3.16,2.63-8.91,2-12.49-1.14-9.31-8.12-18.66-16.11-28.06-24.24C674.85,808.58,674.43,804.06,677.52,801.58Z"/><path class="cls-46" d="M688.35,819.32A37.17,37.17,0,0,0,711.16,811c6-4.75,10.11-11.25,10.42-18.47-3.2-2.58-6.4-5-9.6-7.53-3.5-2.69-8.56-3.1-11.24-.83-7.54,6.09-15.17,12.07-22.6,18.06-2.79,2.16-2.37,6.19.93,9.08Z"/><path class="cls-5" d="M686.29,807.66c1.24-1.23,2.58-2.16,3.82-3.19,1.34.61,2.89,1.65,4.33,2.16,5.37-4.33,10.84-8.77,16.31-13.1,2.68,2.47,5.26,4.75,7.94,7.12-3.71,4.64-7.33,9.39-11.14,14-.62.93,1.34,2.89,2.47,2.17,4.65-3.82,9.39-7.74,14.24-11.66.72.62,1.76,1.34,2.48,2.06-5.06,4.23-10.22,8.36-15.27,12.59-2.79,1.86-8-2.68-7.33-4.54-4.54-2.37-9.08-4.95-13.51-7.43a10.67,10.67,0,0,0-1.14,1A26.74,26.74,0,0,0,686.29,807.66Z"/><path class="cls-5" d="M726,811.51c1.34-1,3.71-.83,5.36.41s1.76,3.3.41,4.23a4.2,4.2,0,0,1-5.15-.31C725.08,814.5,724.67,812.54,726,811.51Z"/><path class="cls-5" d="M714.13,820.5c1.34-1,3.72-.83,5.37.41s1.75,3.3.41,4.23c-1.34,1.14-3.61.93-5.16-.31S712.79,821.53,714.13,820.5Z"/><path class="cls-47" d="M718.07,769.7c8-5.4,16-10.81,24.14-16.31,3.33-2.24,9.08-1.85,13,.73,10.21,6.71,20.29,13.56,30.33,20.32,3.89,2.62,4.38,7.08,1,9.49Q774,793,761.51,802.2c-3.34,2.45-9.18,2.06-13-.83-9.8-7.43-19.51-14.84-29.3-22.18C715.38,776.31,714.75,771.93,718.07,769.7Z"/><path class="cls-48" d="M729.42,786.1a45.68,45.68,0,0,0,24.15-7.84c6.29-4.44,10.73-10.42,11.14-16.92-3.41-2.37-6.81-4.54-10.11-6.81-3.61-2.37-8.77-2.68-11.77-.72-8.15,5.46-16.09,10.93-24,16.4-3,2-2.58,5.78.93,8.46C722.82,781.15,726.12,783.62,729.42,786.1Z"/><path class="cls-5" d="M759.65,762.68a52.46,52.46,0,0,1,6,5.57c5.05,5.47,4.74,11.35-.21,13.31-5.26,1.86-13.21-1-17.95-6.6a74.36,74.36,0,0,1-4.75-6.4c5.68-2,11.45-3.82,16.92-5.88Zm-.62,7.43a.72.72,0,0,0,0,1.13,1.45,1.45,0,0,0,1.45.52.65.65,0,0,0,.2-1.14,2,2,0,0,0-1.65-.51Zm-6.19,2.27c-.31.2-.41.72.11,1.24a1.49,1.49,0,0,0,1.34.31c.51-.11.41-.62.2-1a2,2,0,0,0-1.65-.51Zm9.6,5.67c3.51-1.65,1.13-4.33,1.13-4.33s-.2,1-3,2.37c-3,1.24-4.54.83-4.54.83s2.89,2.68,6.4,1.13Z"/><path class="cls-5" d="M740.15,771.24l3.3.93c.42.62.88,1.28,1.34,1.86s.7,1,1.24,1.55a7.91,7.91,0,0,1,1.14,1.23c1.13.83,2.06,1.66,3.2,2.48a25.43,25.43,0,0,0,3.3,2,3.65,3.65,0,0,0-2.27,1.65h0c-1.86,2.89,2.48,4.85,2.48,4.85s-.93-1.24.72-3.61a5.22,5.22,0,0,1,1.55-1.75,31.6,31.6,0,0,0,4.53.92,4.06,4.06,0,0,1-.3,2.89c-2.07,3.82-10.22,4.65-18.37,1.55a96.51,96.51,0,0,1-8.87-4c2.37-4.13,4.74-8.36,7-12.49Zm6.09,7.23a.72.72,0,0,0,.72.82,1.56,1.56,0,0,0,1.55,0c.1-.41-.21-.72-.83-1.13-.61-.21-1.34,0-1.44.31Zm-2.48,4.64c-.2.2.11.72.83,1a2,2,0,0,0,1.55-.21c.1-.31-.42-.82-.93-1.13A1.56,1.56,0,0,0,743.76,783.11Z"/><path class="cls-49" d="M647.7,921.05c7-7.44,14.15-14.94,21.26-22.49,2.8-3,7.91-2.75,11.35.73,8.73,8.8,17.38,17.69,26,26.3,3.45,3.46,3.83,8.79.72,12.07-7.42,7.86-14.8,15.75-22.29,23.53-3,3.15-8.14,2.88-11.45-.72-8.25-9-16.6-18.17-24.87-27.24C645.13,929.61,644.8,924.14,647.7,921.05Z"/><path class="cls-50" d="M657.3,941.69A33.36,33.36,0,0,0,678.35,931a36.71,36.71,0,0,0,10.21-22.39l-8.77-8.77c-3-3-7.74-3.3-10.32-.72-7,7.63-14.13,15.16-21.15,22.59-2.58,2.79-2.37,7.64.62,10.84C651.62,935.6,654.41,938.59,657.3,941.69Z"/><path class="cls-51" d="M769.56,808.49c8.31-6.12,16.66-12.41,25.17-18.57,3.46-2.51,9.31-2.3,13.21.51,9.82,7.09,19.64,14.2,29.2,21.26,3.85,2.84,3.9,7.4.41,10.11-8.58,6.68-17.21,13.54-25.69,20.12-3.49,2.71-9.28,2.58-13.1-.52-9.29-7.53-19-15.15-28.48-22.8C766.45,815.52,766.1,811,769.56,808.49Z"/><path class="cls-52" d="M780.29,825.72A47.82,47.82,0,0,0,805,816.54c6.5-4.85,11.14-11.46,12-18.57-3.2-2.38-6.5-4.65-9.8-7.12s-8.77-2.69-11.77-.52c-8.46,6.19-16.92,12.38-25.17,18.57-3.1,2.27-2.69,6.5.62,9.18S777.09,823.14,780.29,825.72Z"/><path class="cls-5" d="M811.76,816.85c3.1,4,6.09,7.94,9,11.86-5-2.27-10.11-4.64-15.38-6.91a19.73,19.73,0,0,1-18.26-3c-6.19-4.85-6.71-12.38-1-16.61s15.58-3.82,21.87.93c5.06,3.81,6.61,9.38,3.82,13.72Zm-3.2-.11c3.41-3.71,2.17-8.88-2.37-12.27-5.26-3.93-13.42-4.34-18.16-.83s-4.25,9.93.82,13.83c4.73,3.63,11.66,4.33,16.31,1.85,3,1.45,5.88,2.68,8.77,3.93C812.07,821.18,810.42,819.12,808.56,816.74Z"/><path class="cls-5" d="M792.36,806.94c2.63-1.91,6.91-1.75,9.91.42s3.09,5.57.41,7.42c-2.48,2.07-6.81,2-9.7-.41C790.09,812.31,789.73,808.85,792.36,806.94Z"/><path class="cls-53" d="M726.74,843.88c7.87-6.57,15.75-13.35,23.73-20,3.27-2.72,8.89-2.5,12.69.62,9.51,7.82,19.05,15.4,28.38,23.11,3.78,3.13,4,8.08.61,10.94-8.21,7-16.45,14.3-24.55,21.25-3.45,3-9.06,2.56-12.69-.72-9.06-8.17-18.3-16.26-27.55-24.55C723.71,851.24,723.47,846.6,726.74,843.88Z"/><path class="cls-54" d="M737.16,862.24a41.23,41.23,0,0,0,23.63-9.59c6.19-5.16,10.52-12.28,11.35-19.81-3.2-2.58-6.4-5.16-9.5-7.84-3.3-2.68-8.56-3.1-11.55-.52-7.84,6.61-15.89,13.21-23.73,19.81-2.89,2.48-2.58,6.81.62,9.8C731.07,856.78,734.17,859.46,737.16,862.24Z"/><path class="cls-5" d="M742.32,855.85c1.57-1.32,3.18-2.58,4.85-4s4.33-1.44,7-.2a17.51,17.51,0,0,1-2.26,1.85h0a3.18,3.18,0,0,0-2.17.62c-1.63,1.47-3.19,2.81-4.75,4.13-1.13,1-.93,3,.93,4.54h0c1.75,1.65,4.14,2,5.37.93,1.55-1.33,3.14-2.62,4.85-4a2.43,2.43,0,0,0,.51-2.47c.72-.52,1.45-1.24,2.17-1.76,1.65,2.38,1.81,5.11,0,6.61s-3.18,2.81-4.75,4.13c-2.25,1.88-6.71,1.13-10-1.76h0C740.77,861.52,740.07,857.73,742.32,855.85Z"/><path class="cls-5" d="M753,854.3c3.17-2.81,6.43-5.53,9.69-8.25a2,2,0,0,1,2.17.2h0c.72.72,1,1.59.41,2.07-3.25,2.72-6.43,5.53-9.69,8.25-.45.37-1.45.21-2.27-.41h0A1.34,1.34,0,0,1,753,854.3Z"/><path class="cls-5" d="M759.76,841.09c1.59-1.29,3-2.75,4.64-4,2.31-1.83,6.81-1.24,10.11,1.44h0c3.3,2.69,4.21,6.48,1.86,8.46-1.68,1.42-3.21,2.78-4.75,4.13-1.76,1.54-5,1.34-7.84,0,.83-.62,1.44-1.24,2.27-1.86a3,3,0,0,0,2.79-.41c1.69-1.4,3.18-2.8,4.85-4.23,1.22-1.05.92-3-.83-4.43h0c-2-1.66-4.41-1.83-5.67-.83-1.73,1.37-3.25,2.73-4.85,4a2.28,2.28,0,0,0-.62,2s0-.19-.11-.1c-.82.62-1.44,1.44-2.16,2C758.11,844.81,758,842.48,759.76,841.09Z"/><path class="cls-55" d="M686.19,881.33c7.44-7,14.94-14.15,22.49-21.25,3-2.8,8.46-2.47,12.07.82,9.08,8.26,18.29,16.59,27.35,24.76,3.63,3.28,3.87,8.42.62,11.56-7.79,7.49-15.67,14.87-23.53,22.29-3.18,3-8.59,2.7-12.07-.73-8.69-8.54-17.5-17.26-26.31-26C683.33,889.34,683.11,884.23,686.19,881.33Z"/><path class="cls-56" d="M696.2,900.94a36.32,36.32,0,0,0,22.28-10.12,33.72,33.72,0,0,0,10.84-21.15c-3.2-2.78-6.19-5.57-9.19-8.35-3.3-2.89-8-3.2-10.83-.62-7.53,7.12-15.06,14.24-22.6,21.15-2.68,2.68-2.37,7.43.62,10.42S693.31,898.05,696.2,900.94Z"/><path class="cls-5" d="M723.13,904.13c3.09-2.89,6.29-5.88,9.39-9l-9.91-9.29c-3.2,3-6.19,6-9.29,8.87,3.31,3.1,6.61,6.2,9.81,9.39Zm8.15-12.38a27.48,27.48,0,0,0,2.16-2.16c.21-.21.59-.07.93.2.18.15.39.45.62.62a.39.39,0,0,1,0,.62l-2.16,2.17a.68.68,0,0,1-.93-.11c-.09-.11-.37-.33-.52-.51-.27-.34-.35-.63-.1-.83Zm-3.1-2.89,2.17-2.16c.21-.21.69,0,1,.31.18.14.39.44.62.61a.4.4,0,0,1,0,.62l-2.17,2.17a.78.78,0,0,1-.92-.1c-.09-.12-.38-.34-.52-.52-.27-.34-.41-.72-.21-.93Zm-3-2.78a27.73,27.73,0,0,0,2.17-2.17c.2-.2.69,0,1,.31.18.14.4.43.52.52a.45.45,0,0,1,.1.72,27.51,27.51,0,0,1-2.17,2.16.79.79,0,0,1-.93-.1c-.08-.12-.38-.33-.62-.62s-.35-.62-.1-.82Zm-3-2.79c-.25.21-.17.49.1.83a4.53,4.53,0,0,0,.62.62c.19.13.68.3.93.1a27.73,27.73,0,0,0,2.17-2.17.52.52,0,0,0-.11-.72c-.12-.08-.33-.37-.51-.51-.35-.28-.83-.52-1-.31a27.48,27.48,0,0,1-2.16,2.16Zm-3-2.78a29.54,29.54,0,0,0,2.16-2.17c.1-.1.7,0,.93.21a5,5,0,0,1,.62.62c.31.3.31.51.1.72a29.31,29.31,0,0,1-2.16,2.16.77.77,0,0,1-.93-.1,7.23,7.23,0,0,1-.62-.62c-.27-.34-.36-.62-.1-.82Zm-3-2.79c-.25.2-.16.49.11.83a6.09,6.09,0,0,0,.51.51.68.68,0,0,0,.93.11l2.17-2.17a.38.38,0,0,0,0-.62c-.21-.2-.44-.48-.62-.62a1,1,0,0,0-.93-.21,26.1,26.1,0,0,1-2.17,2.17Zm-3-2.68a24.69,24.69,0,0,0,2.17-2.17c.2-.2.58-.17.93.1.18.15.41.42.62.62a.48.48,0,0,1,0,.62,27.73,27.73,0,0,1-2.17,2.17.67.67,0,0,1-.93-.1,6.33,6.33,0,0,0-.52-.52c-.34-.27-.26-.6-.1-.72Zm4.13,29.82c.72-.73,1.44-1.45,2.17-2.17a.91.91,0,0,1,1.13.21c.14.18.43.4.52.51a.65.65,0,0,1-.11.93L719,906.4a.88.88,0,0,1-1,0c-.12-.08-.33-.38-.62-.62a.72.72,0,0,1,0-.92ZM714.46,902l2.06-2.07c.31-.31.79-.06,1.14.21.18.14.39.43.51.51a.63.63,0,0,1,0,.83L716,903.62c-.21.2-.75,0-.93-.11a3.59,3.59,0,0,1-.62-.61c-.27-.35-.31-.62,0-.93Zm-3-2.79,2.16-2.17c.21-.2.7,0,.93.21a6.39,6.39,0,0,1,.73.52.78.78,0,0,1-.11.93l-2.06,2.06a.66.66,0,0,1-.93-.11c-.17-.23-.54-.37-.72-.51a.63.63,0,0,1,0-.93Zm-2.89-2.89a.57.57,0,0,0,0,.93c.18.15.4.43.51.52.3.22.73.31.93.1l2.17-2.16c.21-.21.29-.59.1-.73a4.53,4.53,0,0,1-.62-.62.76.76,0,0,0-1-.1l-2.06,2.06Zm-3.1-2.89,2.07-2.06c.3-.31.79-.07,1.13.21.18.14.37.46.62.61s.21.42-.1.73L707.13,895a.65.65,0,0,1-.92-.1,6.35,6.35,0,0,1-.52-.52c-.27-.34-.41-.72-.21-.93Zm-2.89-2.89a.57.57,0,0,0,0,.93c.18.15.42.42.62.62a.7.7,0,0,0,1,0l2.06-2.06a.54.54,0,0,0,0-.83c-.1-.1-.37-.33-.52-.51a.93.93,0,0,0-1.13-.21l-2.07,2.06Zm-2.89-2.78,2.07-2.07c.2-.2.7-.07.93.11a5.85,5.85,0,0,1,.62.62c.31.31.31.51,0,.82-.73.72-1.35,1.34-2.07,2.07a.79.79,0,0,1-.93-.11c-.2-.2-.47-.44-.62-.62-.27-.34-.31-.51,0-.82ZM734,896.6c-3.09,3.1-6.19,6-9.39,9h0c-.21.2-.41.41-.62.62l-.41-.42c-.31-.31-.83-.51-1.13-.2l-2.07,2.06a.69.69,0,0,0,.1,1l.42.42-.73.72c-7.94-7.74-16-15.58-24.14-23.42l.72-.73a4.28,4.28,0,0,0,.52.62.81.81,0,0,0,1,.11l2.06-2.07c.31-.3.42-.51.11-.82a3.39,3.39,0,0,0-.62-.52l.62-.62c3.09-2.89,6-5.77,9.08-8.66l.82-.83a4.12,4.12,0,0,0,.52.62.83.83,0,0,0,.93.21,26,26,0,0,0,2.16-2.17c.21-.21.21-.52-.1-.82a2.58,2.58,0,0,0-.52-.42l.21-.2.41-.42c8.26,7.53,16.41,15.07,24.66,22.7l-.72.72-.51-.51c-.21-.21-.73-.41-.93-.21a29.45,29.45,0,0,1-2.17,2.17.47.47,0,0,0,.1.82,4.16,4.16,0,0,1,.42.42l-.83.82Zm-22.8-21.36,9.9,9.29c-3.09,2.89-6.08,5.88-9.18,8.77-3.3-3.1-6.5-6.29-9.8-9.39C705.07,880.92,708.06,878.13,711.16,875.24Z"/><path class="cls-57" d="M868.72,889.69q13.17-11,26.31-22c3.6-3,9.52-2.82,13.1.11,9.32,7.6,18.67,15.15,27.76,22.9,3.5,3,3.43,8.09-.21,11.25-8.84,7.67-17.75,15.27-26.52,23a9.9,9.9,0,0,1-12.79-.1c-9-8-18.33-16-27.45-24C865.35,897.7,865.22,892.59,868.72,889.69Z"/><path class="cls-58" d="M878.62,908.36a49.29,49.29,0,0,0,25-11.14c6.71-5.67,11.76-13.31,13-21.25-3-2.48-6-5.06-9.18-7.64a9.6,9.6,0,0,0-11.66,0l-26.31,22c-3.2,2.58-3.2,7.12,0,10C872.53,903,875.63,905.68,878.62,908.36Z"/><path class="cls-5" d="M899.05,895.36c-1.34-1.23-2.68-2.37-4.13-3.61.62-.41,1.24-1,1.86-1.44-1.44-1.24-2.79-2.38-4.23-3.51a15.68,15.68,0,0,1,2.06-1.65c-.72-.52-1.23-1-2-1.65.83-.83,1.76-1.55,2.58-2.37.62-.42,1.14-.93,1.86-1.45l.1-.1c2.89,2.37,5.68,4.74,8.46,7.12,2.07-1.86,4.13-3.51,6.09-5.26,4.85,4,9.39,7.84,14.14,11.86-.62.62-1.34,1.13-1.86,1.65-4-3.4-8.15-6.81-12.18-10.11l-.1.1h0c-2.06,1.65-4,3.41-6.09,5.06h0c-2.78-2.38-5.46-4.64-8.46-7.12-.93.72-1.75,1.55-2.58,2.17,2,1.75,4,3.4,6.09,5.05-.62.62-1.24,1-1.75,1.55a20.1,20.1,0,0,0,2.16,2c-.61.62-1.34,1.13-1.85,1.65a22.66,22.66,0,0,0,2,1.65c-1.35,1.14-2.79,2.38-4,3.41,2.79,2.47,5.57,4.85,8.26,7.12,2.06-1.66,4.12-3.51,6.19-5.16.51.51,1.24,1,1.75,1.54,3.51-2.88,6.92-5.88,10.32-8.87.72.62,1.34,1.14,2.06,1.65-4.12,3.51-8,7-12.07,10.42a13.89,13.89,0,0,1-1.86-1.65c-1.54,1.34-2.88,2.68-4.33,3.72a14.62,14.62,0,0,0,1.86,1.65c-2.79,2.37-5.57,4.74-8.26,7.22-4.74-4-9.39-8.15-14.13-12.28,4-3.4,8-6.81,12.07-10.32Zm-8.46,10.42c3.51,3.1,7,6.09,10.42,9l4.64-4c-3.4-2.89-6.81-6-10.42-9Z"/><path class="cls-59" d="M914.42,777.85C923.9,771.78,933.5,766,943,760a14.06,14.06,0,0,1,13.82,0c9.58,6.11,19.36,11.92,28.89,18,3.79,2.44,3.28,6.88-.51,9.49-9.52,6.57-19.09,13.08-28.38,19.71a12,12,0,0,1-13.31,0c-9.35-6.7-19.11-13.21-28.68-19.91C911,784.65,910.69,780.24,914.42,777.85Z"/><path class="cls-60" d="M925,793.43a60,60,0,0,0,26.41-9.5c7.23-4.74,12.8-11,14.24-17.54-3-1.85-6.29-3.92-9.49-5.88a12.76,12.76,0,0,0-12.59,0c-9.49,6-19,12-28.37,17.85-3.31,2.27-3.2,6.19.31,8.57C918.66,789.09,922,791.36,925,793.43Z"/><path class="cls-5" d="M965.09,792.81a.53.53,0,0,1-.31.1c-4.95,3.51-10,6.91-15,10.22-1.24-.83-2.69-1.76-4-2.79-2.48-2,5.47-7.53,5-9.49-.41-5.27-7.22-5.88-12.38-8.26h0c-.51-.31.72.57-1.54-.93s-4.65-6.29-1.76-8.35h0l.21-.21h0c3.3-1.86,10.42-.15,12.69,1.34s1,.62,1.34.93h0c3.71,3.2,4.44,7.84,12.48,8.15,2.89.21,11.15-5,14.24-3.51a35.12,35.12,0,0,0,3.93,2.48C975,786,969.94,789.4,965.09,792.81Z"/><path class="cls-61" d="M965.29,746c9.92-5.63,20-10.9,30-16.41,3.84-2.12,10.24-2.32,14-.21,9.52,5.32,19.25,10.35,28.58,15.69,3.68,2.1,3.21,6.2-.72,8.66-9.9,6.21-19.88,12.28-29.61,18.47-3.89,2.48-9.83,2.56-13.52.21-9.41-6-19.18-11.88-28.79-17.75C961.38,752.24,961.38,748.18,965.29,746Z"/><path class="cls-62" d="M975.51,760a70.7,70.7,0,0,0,27.34-9c7.64-4.54,13.41-10.21,15.27-16.09-3.2-1.66-6.29-3.51-9.49-5.27-3.41-1.85-9.19-1.75-12.9.31-9.9,5.58-19.81,10.94-29.82,16.41-3.51,2.27-3.51,5.67,0,7.84C969.11,756.18,972.31,758.14,975.51,760Z"/><path class="cls-5" d="M987.27,747.41c2.52-1.44,5.16-2.89,7.64-4.33-1.86-1-3.88-2.07-5.78-3.2-.89-.53-.83-1.24.1-1.75h0a3.05,3.05,0,0,1,2.89,0c1.92,1.1,4.13,2.26,6,3.4a6.84,6.84,0,0,1,5.37.41c6.44,3.81,13.06,7.4,19.5,11.14,1.72,1,1.62,2.84-.21,3.92q-4.83,2.88-9.59,5.89a6.63,6.63,0,0,1-6.5.1c-6.53-3.87-12.87-7.79-19.4-11.66-1.83-1.08-1.82-2.88,0-3.92Zm2.48,1.44c-.41.22-.48.72-.11.93,3.26,1.86,6.5,3.82,9.6,5.78,3.71-2.27,7.53-4.44,11.25-6.71-3-1.85-6.31-3.69-9.5-5.46a1.93,1.93,0,0,0-1.65,0C996.15,745.16,993,747.11,989.75,748.85Z"/><path class="cls-63" d="M866,812.2c9-6.48,18.17-12.77,27.24-19.19a12.59,12.59,0,0,1,13.52.11c9.57,6.7,19.26,13.52,28.58,20.22,3.89,2.79,3.64,7.46,0,10.21-9,6.85-18.18,13.8-27.34,20.74a11,11,0,0,1-13-.31c-9.36-7.29-18.95-14.38-28.48-21.77C862.77,819.28,862.56,814.7,866,812.2Z"/><path class="cls-64" d="M876.56,829a54.68,54.68,0,0,0,25.59-9.9c6.91-5.06,12.17-11.66,13.31-18.88-3-2.07-6.19-4.44-9.39-6.61-3.51-2.58-9-2.58-12.18-.2-9.08,6.39-18.06,12.89-27.14,19.29-3.3,2.48-3.19,6.4.42,9.08C870.26,824.28,873.46,826.65,876.56,829Z"/><path class="cls-5" d="M883,818c5.78-4.33,11.87-8.56,17.65-12.9,6.09,4.44,12.17,8.88,18.16,13.11-5.88,4.43-12,8.87-17.85,13.31-6-4.44-12-9-18-13.52Zm18,8.26c3.5-2.69,7.12-5.27,10.73-8-3.72-2.58-7.33-5.37-10.94-8-3.71,2.69-7.22,5.16-10.73,7.84,3.72,2.69,7.33,5.47,10.94,8.16Zm.2,10.62c8.26-6.19,16.51-12.58,25-18.78-8.56-6.08-17-12.17-25.69-18.26-8.36,5.88-16.61,11.87-24.87,17.85C884.09,824.07,892.55,830.57,901.11,836.86Z"/><path class="cls-65" d="M1075.7,690.87c11-4.24,22.08-8.65,33.22-13,4.44-1.74,11.17-2.25,14.76-.93,9,3.32,18.18,6.37,27.13,9.91,3.35,1.32,2.16,4.73-2.16,6.8-10.74,5.15-21.68,10.3-32.4,15.48-4.45,2.15-10.65,2-14.24.31-9.12-4.37-18.65-8.32-27.86-12.48C1070.36,695.24,1071.19,692.61,1075.7,690.87Z"/><path class="cls-66" d="M1084.05,700.78a100.52,100.52,0,0,0,29.82-7.54c8.46-3.71,15.07-8.15,18-12.59-3-1-6-2.16-9-3.3-3.3-1.13-9.18-.72-13.41.83-11.15,4.33-22.29,8.67-33.23,13-4.23,1.55-4.74,4-1.34,5.47C1078,698.09,1081.06,699.54,1084.05,700.78Z"/><path class="cls-5" d="M1103.86,688.81c8.41-3.3,19.2-4.65,28.17-4.23,1.34,3.71-2.53,8.25-10.83,11.86a59.33,59.33,0,0,1-28.07,4.13c-1.44-3.82,2.33-8.46,10.73-11.76Zm5.89,0c4-.73,8.46-.78,11.14.41s2.68,3.09.62,4.74c4.33-2.37,6.5-5.15,6.4-7.63a66.51,66.51,0,0,0-18.16,2.48Zm5.77,7.63c-4.12.93-8.61.93-11.35-.31s-2.68-3.2-.51-4.85c-4.44,2.17-6.71,5.06-6.5,7.64a49.48,49.48,0,0,0,18.36-2.48Zm-4.64-6.5c-1.7.62-2,1.55-.62,2.17s3.71.26,5.37-.41,2.17-1.7.82-2.28S1112.59,689.32,1110.88,689.94Z"/><path class="cls-67" d="M1018.84,716.77c10.38-4.94,20.91-9.77,31.47-14.76,4.3-2,10.69-2.39,14.45-.62,9.35,4.42,18.82,8.48,28.06,13.11,3.57,1.78,2.8,5.37-1.44,7.74-10.21,5.68-20.69,11.25-30.85,17-4.19,2.38-10.12,2.37-13.83.31-9.31-5.18-19-10.05-28.58-15.27C1014.43,722.3,1014.68,718.75,1018.84,716.77Z"/><path class="cls-68" d="M1028.44,728.94a84.1,84.1,0,0,0,28.48-8.46c7.74-4,14.13-9.08,16.4-14.34-3.09-1.34-6.08-2.89-9.28-4.44-3.51-1.54-9.39-1.13-13.21.62-10.53,4.95-21,9.91-31.47,14.76-3.71,1.85-3.92,5-.41,6.81C1022.15,725.64,1025.34,727.39,1028.44,728.94Z"/><path class="cls-5" d="M1047.94,716c-.82-2.47-.32-4.14,3.82-6.19,4.42-2.18,10.85-2.83,14.24-1.23,5.8,2.73,3.5,9.9,1.34,17.23-14,1.24-28.15,2.22-34-.83-3.28-1.69-2.5-5,2-7.12C1039.46,715.9,1042.89,715.53,1047.94,716Z"/><path class="cls-69" d="M906.89,648.57l34.57-1.76c4.64-.23,12.27-.12,16.82.11q17.79.89,35.29,1.75c4.64.24,4.56,1.06,0,1.75-11.75,1.79-23.22,3.43-34.78,5.27a65.67,65.67,0,0,1-16.92-.11c-11.56-1.75-23.44-3.38-35.18-5.16C902,649.72,902.15,648.81,906.89,648.57Z"/><path class="cls-70" d="M919.17,652.08a274.57,274.57,0,0,0,32.71-1.55c8.77-.93,15.37-2.07,17.33-3.1-3.81,0-7.74-.2-11.65-.41-4.34-.31-11-.21-15.28-.1q-17.49.76-34.67,1.85c-4.33.21-4.43.93-.1,1.65C911.33,650.94,915.25,651.56,919.17,652.08Z"/><path class="cls-5" d="M933.2,649.7c2.89-.23,5.78-.41,8.88-.62-2.48-.2-4.86-.5-7.33-.72-1-.08-.93-.41.11-.41h0a21.9,21.9,0,0,1,3.5.1c2.48.22,4.85.41,7.33.72a59.86,59.86,0,0,1,6.5.11c7.95.59,16,1.39,23.83,2,2.17.15,2.09.53,0,.82-3.7.53-7.43,1-11.24,1.55a37.18,37.18,0,0,1-7.74.1c-7.95-.9-16-1.81-23.84-2.78-2.17-.27-2.27-.65,0-.83Zm3,.31c-.53,0-.57.25-.11.31,3.91.56,7.95.93,11.76,1.14,4.23-.52,8.77-.93,13.21-1.45-4-.2-7.84-.47-11.76-.93a12.83,12.83,0,0,0-1.86,0C943.53,649.36,939.8,649.65,936.2,650Z"/><path class="cls-71" d="M797.31,669.41c9.65-2.67,19.42-4.9,29.1-7.43,3.73-1,10.71-.66,15.27.62,11.64,3.26,23.25,6.38,34.67,9.6,4.68,1.31,5.07,3.54,1.14,4.95-9.9,3.54-19.86,6.68-29.72,10.31a24.56,24.56,0,0,1-14.86-.1c-11.24-4.14-22.72-8.29-34-12.48C794.3,673.19,793.54,670.45,797.31,669.41Z"/><path class="cls-72" d="M810.83,678.7a118.27,118.27,0,0,0,28.07-4.13c7.43-2.27,12.69-5.37,13.72-8.57-3.82-1-7.74-2.06-11.56-3.19-4.23-1.24-10.42-1.45-13.82-.52-9.81,2.58-19.51,5.06-29.2,7.53-3.31,1-2.69,3.3,1.44,4.85C803.2,676.12,807,677.46,810.83,678.7Z"/><path class="cls-5" d="M826.31,670.34c7.53-1.91,18.47-2.37,28.27-1.34,3.2,3.09,1.19,6.39-6.4,8.66s-18.57,2.69-28.27,1.55c-3.3-3.61-1.13-7,6.4-8.87Zm6.09.41a34.61,34.61,0,0,1,12.38,1.14c3.4,1,4.13,2.57,2.68,3.92,3.4-1.65,4.85-3.61,3.51-5.58a64.67,64.67,0,0,0-18.57.52Zm9.59,6.6c-4.12.31-8.92.06-12.28-1.23s-4.23-2.69-2.47-3.92c-3.72,1.54-5.16,3.5-3.72,5.77a63.71,63.71,0,0,0,18.47-.62Zm-7.84-5.77c-1.5.41-1.34,1.29.31,1.85a11.56,11.56,0,0,0,5.78.31c1.5-.41,1.5-1.34-.21-2A11.36,11.36,0,0,0,834.15,671.58Z"/><path class="cls-73" d="M705.48,708c8.2-4,16.43-7.9,24.66-11.87,3.33-1.6,9.49-1.12,13.83,1,11,5.48,21.92,11,32.71,16.31,4.38,2.17,5.08,5.41,1.65,7.32-8.64,4.8-17.21,9.35-25.8,14.24-3.38,1.92-9.29,1.87-13.51-.62-10.44-6.17-21-12.49-31.58-18.67C703.22,713.25,702.33,709.54,705.48,708Z"/><path class="cls-74" d="M718.48,721.51c9.6-.2,18.27-2.37,24.66-5.67s10.84-7.84,11-13.11c-3.61-1.65-7.22-3.4-10.83-5.36-3.92-2-9.49-2.37-12.48-.82-8.16,4-16.31,8-24.56,12-2.89,1.65-2.17,4.65,1.65,6.92C711.47,717.49,715,719.55,718.48,721.51Z"/><path class="cls-5" d="M725,718.73c8.77-4.34,29.7-.58,35.19,2.37s.21.21.21.31c-1.35.93-2.89,1.65-4.34,2.48,0-.11,3.73,1.86-.2-.31s-19.2-4.85-25.49-1.76c-1.86-1-3.61-2-5.37-3.09Zm15.17,5.16c-1.7,1-1.49,2.68.62,3.92s5.32,1.49,7.12.51,1.55-2.73-.62-3.92-5.41-1.49-7.12-.51Zm-25.79-11.25c1.75.93,3.5,2.06,5.26,3,11-5.36,38-.58,45,3.1s.1.31.2.31c1.55-.73,3-1.55,4.44-2.38-.11,0,8.27,4.09-.21-.31S727.77,706.14,714.36,712.64Z"/><path class="cls-75" d="M849.42,656.31c10.4-1.7,21-3.13,31.57-4.75a61.78,61.78,0,0,1,16.2.31c11.86,2,23.64,4,35.19,6,4.65.8,4.76,2.22.51,3.3-10.71,2.74-21.49,5.25-32,8.05a36.19,36.19,0,0,1-15.79.21c-11.47-3-23.14-6-34.77-9.08C845.78,659.11,845.27,657,849.42,656.31Z"/><path class="cls-76" d="M862.63,663a172.33,172.33,0,0,0,30.13-3.09c8-1.65,13.93-3.72,15.37-6.09A116.53,116.53,0,0,1,896.47,652a53.73,53.73,0,0,0-14.65-.1c-10.63,1.55-21.15,3.2-31.57,4.74-3.82.73-3.41,2.38.82,3.41C855,661.05,858.81,662.19,862.63,663Z"/><path class="cls-5" d="M868.1,660.74c1.34-.51,2.78-.93,4.12-1.55,6.09,1.55,12.38,3.41,18.57,5.16a19.41,19.41,0,0,0,4.24.11c4.43-.93,8.87-1.65,13.2-2.58a81.79,81.79,0,0,0-7.63,3.51,15.83,15.83,0,0,1-2.37.1c-9.7-1.24-19.61-2.79-29.31-4.34-.72.11-1.24-.2-.82-.41Zm8.66-5.47c-.72.21-1.24.21-.82.42,3.81,2.16,7.84,4.33,11.76,6.7a8.79,8.79,0,0,0,2.17.21c6-.37,12.17-.72,18.16-1.24,1.13,0,1.55-.34,1-.62-3.95-2.11-7.84-4.13-11.87-6.09-.31-.3-1.33-.25-2.16-.2-6.19.36-12.18.62-18.27.82Zm27.14,5.06a3.74,3.74,0,0,0-1.55-.1c-.62,0-.93.1-.62.41a29.63,29.63,0,0,0,3.61.62c.73-.31,1.45-.72.93-1a2.11,2.11,0,0,0-1.44-.11,1,1,0,0,0-.93.21Zm-24-4.64a4,4,0,0,1,.93-.11,2.46,2.46,0,0,1,1.55.11c.61.31-.21.51-.93.72a12.8,12.8,0,0,1-3.61-.41c-.31-.21.1-.42.61-.52a3.72,3.72,0,0,0,1.45.21Zm11.25,2.06a11.59,11.59,0,0,0-3.82-.31c-1.55.21-2.27.41-1.55.72,1.13.62,5.16,1,9.18,1.45,1.76-.62,3.69-1.58,2.38-2.17a11,11,0,0,0-4.13-.31c-1.55,0-2,.31-2.06.62Zm-21.26-.1c-.62,0-.64.37-.1.51,7.31,2,14.75,4,22.08,5.88a4.48,4.48,0,0,0,2.47.11c4.24-.89,8.36-1.55,12.8-2.38-5.68.42-11.15.83-16.61,1.14a12,12,0,0,1-3.92-.41c-3.41-2-6.82-4-9.91-5.78C874.29,656.92,872,657.34,869.85,657.65Z"/><path class="cls-77" d="M749.44,686.74c8.86-3.5,17.86-6.46,26.83-9.69,3.62-1.31,10.1-.92,14.65.82,11.34,4.35,22.59,8.77,33.84,13.1,4.54,1.75,5.06,4.54,1.34,6.19-9.28,4.13-18.6,8.08-27.65,12.39-3.55,1.68-9.82,1.78-14.24-.31-10.85-5.14-21.9-10.37-32.91-15.69C746.93,691.44,746,688.1,749.44,686.74Z"/><path class="cls-78" d="M762.85,698.4c10.11-.31,19.5-2.17,26.31-5s11.77-6.71,12.28-10.84c-3.71-1.34-7.43-2.78-11.25-4.33-4.12-1.55-10-2.06-13.2-.72-9,3.19-17.85,6.5-26.83,9.7-2.89,1.44-2.17,4.22,1.86,6.08C755.63,695,759.34,696.85,762.85,698.4Z"/><path class="cls-5" d="M795.46,700.78l10.83-4.65c-4-1.75-8.25-3.51-12.28-5.26-3.61,1.55-7.32,3-10.94,4.54,4.23,1.75,8.26,3.51,12.39,5.37Zm9.18-6.61a16.23,16.23,0,0,1,2.58-1.13,2.85,2.85,0,0,1,1.13.1,3,3,0,0,1,.73.31c.27.17.29.34.1.41-.86.34-1.65.83-2.58,1.14a1.45,1.45,0,0,1-1-.11c-.28-.16-.6-.14-.93-.31-.09,0-.3-.27,0-.41Zm-3.71-1.65c.8-.27,1.63-.65,2.47-1a2.06,2.06,0,0,1,1.14.1c.4.14.65.1.82.21.38.22.41.51.11.62-.93.31-1.78.66-2.58.93-.44.14-.93.2-1.14,0A2,2,0,0,0,801,693c-.29-.1-.54-.37-.1-.52ZM797.11,691c.93-.31,1.76-.7,2.58-.93a2.38,2.38,0,0,1,1,0,5.6,5.6,0,0,1,.93.31c.25.15.31.43,0,.52a17.18,17.18,0,0,0-2.48,1,1.34,1.34,0,0,1-1.13-.2,6.82,6.82,0,0,0-.83-.21c-.22-.07-.41-.41-.1-.52Zm-3.82-1.55c-.31.11-.09.32.21.42a4.14,4.14,0,0,1,.82.51,1.57,1.57,0,0,0,1,0c.93-.3,1.73-.79,2.58-1.13.19-.08.21-.1,0-.21s-.47-.4-.82-.51a3.14,3.14,0,0,0-1.14-.11c-.94.26-1.75.73-2.68,1Zm-3.61-1.54c.93-.31,1.55-.72,2.47-1a1.87,1.87,0,0,1,1.14.1c.32.19.5.32.83.51s.41.21.1.31c-.93.31-1.65.62-2.58.93a1.57,1.57,0,0,1-1,0,3.34,3.34,0,0,0-.83-.31c-.22-.07-.41-.41-.1-.51ZM786,686.23c-.43.14-.19.42.11.51a4.19,4.19,0,0,1,.82.52c.2.12.76-.1,1-.21a25.6,25.6,0,0,1,2.58-.93c.2,0,.12-.23-.1-.31-.4-.13-.51-.33-.93-.41a3.23,3.23,0,0,0-.93-.1c-.94.26-1.77.66-2.58.93Zm-3.81-1.55c.92-.31,1.63-.67,2.58-.93a3.29,3.29,0,0,1,1.13.1c.35.12.47.4.83.52s.37.19.1.31a25.54,25.54,0,0,1-2.58.93,2.24,2.24,0,0,1-1.14.1c-.35-.12-.42-.38-.82-.52-.22-.07-.41-.41-.1-.51Zm6.08,16.4c.89-.4,1.85-.65,2.69-1a1.8,1.8,0,0,1,1,0,4.81,4.81,0,0,1,.93.31c.25.15.29.38,0,.52-.84.38-1.69.73-2.58,1.13a1.46,1.46,0,0,1-1.14-.2c-.17-.11-.42-.07-.82-.21-.22-.07-.37-.4-.11-.52Zm-3.61-1.75c.79-.32,1.74-.55,2.58-.93a2,2,0,0,1,1.14-.1,3.7,3.7,0,0,1,.82.41c.25.15.3.38,0,.52-.84.38-1.69.73-2.58,1.13a1.44,1.44,0,0,1-1.13-.2,3,3,0,0,0-.72-.31c-.3-.1-.38-.41-.11-.52Zm-3.71-1.65c.89-.41,1.79-.46,2.58-.93a1.75,1.75,0,0,1,1.13-.1,3.21,3.21,0,0,1,.83.41c.25.15.3.38,0,.52-.84.38-1.7.68-2.48,1a1.34,1.34,0,0,1-1.24-.1,2.9,2.9,0,0,0-.72-.31c-.29-.1-.37-.4-.1-.52ZM777.19,696c-.26.12-.11.44.11.52.4.13.5.32.82.51a1.46,1.46,0,0,0,1.14-.1,21.42,21.42,0,0,1,2.47-1c.3-.14.17-.26,0-.42a3.43,3.43,0,0,0-.82-.51,1.76,1.76,0,0,0-1.14.1c-.68.38-1.69.52-2.58.93Zm-3.71-1.65a27,27,0,0,0,2.58-1.14,1.55,1.55,0,0,1,1.13.11,3.49,3.49,0,0,1,.83.51c.16.16.29.28,0,.42a21.57,21.57,0,0,0-2.48,1,1.41,1.41,0,0,1-1,0,3.79,3.79,0,0,0-.93-.42c-.22-.07-.37-.39-.1-.51Zm-3.61-1.76c-.27.11-.19.42.1.52s.49.35.83.51a1.88,1.88,0,0,0,.92-.1c.9-.4,1.87-.6,2.59-.93.41-.19.29-.31,0-.41a3.94,3.94,0,0,1-.83-.51,1.71,1.71,0,0,0-1.13-.11c-.85.38-1.69.72-2.48,1ZM766.15,691c.89-.4,1.64-.65,2.48-1a1.8,1.8,0,0,1,1.14.1,3.55,3.55,0,0,0,.82.52c.29.1.4.18.1.31-.84.38-1.79.61-2.58.93a2.07,2.07,0,0,1-1.13.1,3,3,0,0,1-.72-.41c-.2-.12-.37-.4-.11-.52Zm42.1,5.88c-3.71,1.66-7.32,3.2-10.94,4.75h0a3.08,3.08,0,0,0-.82.41,4.12,4.12,0,0,1-.83-.31,1.8,1.8,0,0,0-1,0c-.84.38-1.79.63-2.68,1-.27.13-.1.4.1.52a7.13,7.13,0,0,1,.72.41,3,3,0,0,1-.82.21c-10-4.44-20-9.08-30.13-13.72l.93-.31c.21.31.42.26.62.31a2.24,2.24,0,0,0,1,0c.79-.32,1.74-.55,2.58-.93.3-.13.22-.36,0-.41s-.52-.11-.62-.31a1.56,1.56,0,0,1,.62-.42l10.83-4,.93-.31a2,2,0,0,0,.62.31,2.11,2.11,0,0,0,1,0c.93-.31,1.76-.71,2.58-.93.32-.08.23-.36,0-.41s-.51-.1-.62-.31l.11-.1A.84.84,0,0,1,783,682c10.22,4.33,20.43,8.35,30.65,12.58a2.17,2.17,0,0,0-.83.42c-.31-.11-.42-.18-.82-.31a1.93,1.93,0,0,0-1,0c-.92.31-1.66.57-2.58.93-.43.16-.19.41.11.51a1.58,1.58,0,0,1,.72.42l-.93.3Zm-28.58-12c4,1.75,8.15,3.4,12.28,5.26-3.61,1.34-7.22,2.89-10.84,4.23-4-1.76-8.15-3.61-12.27-5.47Z"/><path class="cls-79" d="M807.43,714.39c9.07-4.46,18.46-8.56,27.65-12.79,3.82-1.76,10.32-1.65,14.44.31,10.63,5.05,21.36,10,31.89,15.06,4.12,2,4.37,5.65.61,7.64-9.45,5-19,9.8-28.27,15.06-3.63,2.07-9.79,2.05-13.82-.2-10.52-5.9-20.92-11.82-31.47-17.55C804.36,719.7,803.9,716.13,807.43,714.39Z"/><path class="cls-80" d="M819.7,727.39c10-.62,19.4-3.09,26.42-6.6s12.38-8.36,13.31-13.52c-3.51-1.65-7.12-3.4-10.63-5-3.82-1.75-9.7-2-13-.31-9.18,4.23-18.47,8.56-27.65,12.79-3.1,1.86-2.58,5,1,6.92C812.58,723.58,816.2,725.54,819.7,727.39Z"/><path class="cls-5" d="M861.08,728.22l-.21.21c-4.85,2.57-9.8,5.26-14.75,7.73-1.45-.82-3-1.65-4.44-2.37-2.58-1.86,5-6.09,4.44-7.53-.93-4.34-8.15-5.06-13.62-7.22h0c-.52-.11.57.61-1.86-.73s-5.16-5-2.48-6.7h-.1l.1-.1.11-.11.2.11c3.2-1.35,10.63.15,13.11,1.44a7.75,7.75,0,0,0,1.75.83h0c4,2.78,5.27,6.39,13.52,6.91,3,.21,11.25-3.72,14.65-2.48a34.4,34.4,0,0,0,4.44,2.17C871,723.06,866,725.54,861.08,728.22Z"/><path class="cls-81" d="M857,691.49c9.77-3.7,19.85-7.11,29.82-10.84a24.66,24.66,0,0,1,14.65.11c10.83,4,21.67,8.06,32.5,12.17,4.13,1.57,4.17,4.61.21,6.4-10,4.51-20.09,8.71-30,13.31a19.25,19.25,0,0,1-14.35-.1c-10.7-4.91-21.33-9.76-32.09-14.65C853.47,696,853.1,693,857,691.49Z"/><path class="cls-82" d="M869,702.43a90.27,90.27,0,0,0,28.07-6c7.64-3.09,13.21-7.12,14.65-11.35-3.61-1.34-7.33-2.58-10.83-4-3.82-1.34-9.91-1.55-13.52-.21-9.9,3.72-19.81,7.22-29.72,10.94-3.5,1.44-3.19,4.13.62,5.88C861.8,699.33,865.41,700.88,869,702.43Z"/><path class="cls-5" d="M875.63,695.51c6.6-2.47,13-5.16,19.4-7.63,6.91,2.78,13.72,5.47,20.53,8-6.6,2.68-13,5.57-19.61,8.25-6.7-2.68-13.51-5.78-20.32-8.67Zm20.22,5.37c3.92-1.65,7.84-3.3,11.87-4.85-4.23-1.65-8.36-3.3-12.49-4.95-3.92,1.44-7.84,3.09-11.76,4.54,4.13,1.65,8.25,3.5,12.38,5.26Zm.31,6.71c9.18-3.82,18.26-7.74,27.45-11.77-9.6-3.61-19.09-7.32-28.79-11.14-9.08,3.51-18.26,6.91-27.34,10.42Z"/><path class="cls-83" d="M910.19,672.3c10.59-2.94,21.31-5.59,32-8.46a35.94,35.94,0,0,1,15.48-.1c10.82,2.83,21.67,5.75,32.5,8.66,4.13,1.11,3.82,3.63-.41,5.16-10.62,3.83-21.27,7.62-31.89,11.45a25.36,25.36,0,0,1-15.06,0c-10.82-4-21.66-7.77-32.5-11.55C906.08,676,905.92,673.49,910.19,672.3Z"/><path class="cls-84" d="M922,681.07a124.93,124.93,0,0,0,29.71-5.16c8.05-2.48,14.35-5.78,16.1-9.08-3.61-.93-7.33-2-10.83-3a33.9,33.9,0,0,0-14,.1c-10.73,2.89-21.46,5.78-32,8.67-3.82,1.13-3.62,3.3.2,4.64C914.63,678.49,918.35,679.73,922,681.07Z"/><path class="cls-5" d="M937.74,671A39.37,39.37,0,0,1,948,669.62a2,2,0,0,1-.83,1.23c-3.2-.2-6.5-.1-9.59,0,0,0,.2,0,.2.11Zm9.29.2c-3.3-.2-6.6,0-9.49.11a38.09,38.09,0,0,0,5.57,1.75,22.79,22.79,0,0,0,3.92-1.86Zm-4.64,2.17a45.82,45.82,0,0,1-6.4,1c-.62-1-.31-1.75.72-2.89,2.07.73,3.72,1.34,5.68,1.86Zm-7.64,1.24c-.62-1.14-.31-2,.72-3.1-.1.11-.1.11-.2.11-2.69.92-3.92,2-4.65,3.19,1.45-.1,2.79-.2,4.13-.2Zm14.45-5a51.65,51.65,0,0,1,14.44,1.54c-1.65.42-3.4.93-4.85,1.34a59.87,59.87,0,0,0-10.52-1.65,2.51,2.51,0,0,0,.93-1.23Zm8.87,3.19c-2.68.83-5.36,1.65-8,2.38-2.06-.52-4.23-1.24-6.29-1.86,1.86-.72,3.3-1.24,4-2.27,3.72.52,7.23,1,10.22,1.75Zm-8.67,2.69a49.69,49.69,0,0,1-6.29-2.07,36.76,36.76,0,0,1-7.12,1.24c.93,1.24,2.47,2.27,5.36,3.3l8-2.47Zm-8.87,2.68-4.64,1.55c-3.72-1.34-5.58-3.1-5.06-4.75,1.34,0,2.79-.1,4-.21a13.58,13.58,0,0,0,5.67,3.41Zm23.83-6.91c-1.75.51-3.3,1-4.85,1.54,3,.83,4.75,2,5.58,3.2a20.84,20.84,0,0,1,4.33-.31c.41-1.65-1.34-3.09-5.06-4.43Zm-.2,4.85c-.72-1.14-2.58-2.27-5.47-3.1-2.68.83-5.16,1.65-7.84,2.48,2.16.72,4.33,1.34,6.29,2a45.75,45.75,0,0,1,7-1.34Zm-7.64,1.54c-1.85.73-3.51,1.45-4.23,2.27a41.75,41.75,0,0,1-10.11-1.75c2.58-.72,5.26-1.55,7.94-2.37,2.17.51,4.34,1.34,6.4,1.85Zm-4.64,2.69a52.33,52.33,0,0,1-10.53-2c-1.65.61-3.3,1-4.74,1.44a39.89,39.89,0,0,0,14.44,1.86,3,3,0,0,1,.83-1.34Zm17.54-4.44c-.52,1.14-2.06,2.37-4.54,3.3l-.21.1c1-.92,1.35-2,.62-3,1.45-.1,2.68-.31,4.13-.41Zm-5.88,3.51a42.18,42.18,0,0,1-5.47-1.76,43.48,43.48,0,0,1,6.29-1.24,2.91,2.91,0,0,1-.82,3Zm-1.14.62a35.14,35.14,0,0,1-10.32,1.65,2.49,2.49,0,0,1,.83-1.24,61.3,61.3,0,0,0,9.7-.31l-.21-.1Zm-9.08,0a56.25,56.25,0,0,0,9.39-.42c-1.75-.51-3.61-1.13-5.36-1.65A10.34,10.34,0,0,0,953.32,680Z"/><path class="cls-85" d="M761.2,740.6c8.7-5,17.26-9.76,26-14.65,3.43-1.92,9.6-1.75,13.62.52,10.42,5.88,20.83,12,31.26,17.95,4,2.29,4.36,6.22.83,8.46-8.85,5.6-17.74,11.09-26.62,16.71-3.51,2.22-9.4,2.08-13.31-.51-10.12-6.7-20.44-13.3-30.54-19.92C758.51,746.59,757.82,742.54,761.2,740.6Z"/><path class="cls-86" d="M773.17,755.35A55.56,55.56,0,0,0,798.45,748c6.81-3.92,11.45-9.29,12.18-15.27-3.51-2.07-7-3.92-10.53-6-3.72-2.06-9.18-2.27-12.28-.41-8.56,4.85-17.23,9.8-25.79,14.65-3,2-2.58,5.37,1,7.74C766.36,751,769.77,753.19,773.17,755.35Z"/><path class="cls-5" d="M770.8,745.45c1.55-.93,3-1.75,4.43-2.58,1.55.62,3.3,1.24,4.75,1.75,6.29-3.61,12.59-7.22,18.57-10.83,3,2,5.68,3.72,8.67,5.78-4.33,3.82-8.56,7.74-12.79,11.55-.93.83,1.23,2.38,2.58,1.86,5.36-3.3,10.62-6.5,16.09-9.8.93.41,2,1.13,2.79,1.55-5.88,3.61-11.66,7.12-17.34,10.73-3.2,1.44-8.87-2.17-8-3.82-5-2-10-3.82-14.85-5.88a7.61,7.61,0,0,1-1.24.72C773.27,746.17,771.93,745.86,770.8,745.45Z"/><path class="cls-5" d="M801.65,754c1.55-.93,4.23-.72,6,.21,1.55,1,1.65,2.58.1,3.51a5.39,5.39,0,0,1-5.57-.11C800.41,756.49,800.1,754.94,801.65,754Z"/><path class="cls-5" d="M813.51,746.89a6.26,6.26,0,0,1,5.88.11c1.55.82,1.76,2.47.21,3.4a5.92,5.92,0,0,1-5.57-.1C812.28,749.37,812.07,747.82,813.51,746.89Z"/><path class="cls-87" d="M968.18,657.85c11.37-2,22.91-4.14,34.46-6a63.24,63.24,0,0,1,16.1-.31c10.73,1.63,21.47,3.24,32.09,5,4.14.67,3.63,2.65-.93,3.82q-17.31,4.44-34.25,9.08c-4.62,1.26-11.87.8-15.89-.21-10.83-2.7-21.67-5.47-32.61-8.15C962.92,660,963.35,658.68,968.18,657.85Z"/><path class="cls-88" d="M978.81,663.63a178.81,178.81,0,0,0,31.88-3.61c8.77-2,15.58-4.33,18-6.6-3.6-.52-7.22-1-10.72-1.65a62.47,62.47,0,0,0-14.55.2c-11.66,2-23.12,3.92-34.47,6-4.43.72-4.64,2.06-.82,3C971.48,661.88,975.2,662.7,978.81,663.63Z"/><path class="cls-5" d="M1026.58,657.34c3.2-1.34,3.1-2.48,0-3-5-.84-15.79-.14-24.14,1.44a38.56,38.56,0,0,0-6.92,1.86,47,47,0,0,1,10.94.2c3.5.75,2.58,2.07-2.06,3.3a77.91,77.91,0,0,0,16-1.85c.51-.12,1.14-.31,1.55-.42,5.67-.3,11.24-.51,17-.72C1026.58,657.34,1030.61,657.65,1026.58,657.34Z"/><path class="cls-5" d="M994.8,663c-5.36.52-10.3.45-12.9-.2-3.9-1-1.63-2.7,5.17-4a71.8,71.8,0,0,1,8.45-1.13c-2.47,1-2.46,2.33.83,3a38.06,38.06,0,0,0,8,.51,15.54,15.54,0,0,1-2.79.83,8.15,8.15,0,0,1-1.54.21,9.71,9.71,0,0,1-.52,3.09c-4.75-2.27-3.3-1.54-4.75-2.27Zm4.13-5.67c.1.1.41.1.51.1-.1,0-.41,0-.51-.1Zm3.71.1h0Zm5.68,1c.62.72-.1,1.45-2.37,2.17,2.27-.72,3-1.45,2.37-2.17Zm-2.37,2.17a7,7,0,0,1-.73.31A7,7,0,0,0,1006,660.64Z"/><path class="cls-89" d="M912.67,717.18c10-4.76,19.92-9.16,29.92-13.83a19.77,19.77,0,0,1,14.55,0c10.12,4.73,20.36,9.32,30.23,14,4,1.88,3.78,5.48-.2,7.63-9.95,5.38-20.13,10.53-30,16-3.94,2.18-10.06,2.29-13.93.11-9.85-5.56-20.09-11-30.33-16.41C908.88,722.6,908.8,719,912.67,717.18Z"/><path class="cls-90" d="M923.61,729.87a84.82,84.82,0,0,0,28-7.53c7.64-3.92,13.31-8.87,15-13.93-3.4-1.55-6.7-3.2-10.11-4.75a18,18,0,0,0-13.11,0l-30,13.93c-3.61,1.76-3.3,4.85.31,6.81C916.9,726.26,920.31,728,923.61,729.87Z"/><path class="cls-5" d="M936,714.39c4.85,1.24,9.49,2.38,14.24,3.62,3.92-1.86,7.63-3.72,11.55-5.58-1,2.48-1.95,5.27-2.78,7.74,4.85,1.24,9.7,2.37,14.44,3.41-5.36.62-10.62,1.13-16.09,1.54-.73,2.69-1.76,5.57-2.58,8.26-2.27-2.48-4.65-4.85-7.12-7.43-5.37.41-10.63.93-15.89,1.24,3.82-2,7.53-3.82,11.35-5.78C940.74,719.24,938.46,716.77,936,714.39Z"/><path class="cls-91" d="M966.33,692.62c10.47-4,21.17-7.88,31.77-11.76,4.36-1.59,11-1.77,15.07-.31,10.12,3.7,20.18,7.18,30.13,11,3.88,1.51,3.31,4.56-.93,6.5-10.62,4.87-21.21,9.48-31.68,14.34-4.18,2-10.46,2.05-14.44.21-9.85-4.56-20-9.08-30.23-13.62C962,697.26,962.05,694.27,966.33,692.62Z"/><path class="cls-92" d="M977,703.35a104.27,104.27,0,0,0,29.2-6.91c8.05-3.3,14.14-7.63,16.41-11.86-3.41-1.35-6.81-2.48-10.11-3.72a22.75,22.75,0,0,0-13.62.31c-10.74,3.92-21.26,7.84-31.89,11.87-3.81,1.34-3.71,4.23-.1,5.77C970.14,700.26,973.55,701.81,977,703.35Z"/><path class="cls-5" d="M976.13,695.82c1.75-.72,3.5-1.44,5.36-2.06,1.65.31,3.2.93,5,1.13,7.54-3,15.17-5.88,22.6-9.08,2.68,1.45,5.47,2.58,8.25,3.82-5.46,3.1-10.83,6.3-16.19,9.39-1.14.52,1,1.65,2.47,1.24,6.4-2.68,12.9-5.47,19.4-8.36,1,.52,2,.72,2.68,1-6.81,3-13.82,6.09-20.63,9-3.82,1.34-9.5-1-8.15-2.37-5.37-1.14-10.43-2.38-15.48-3.61-.52.2-.93.41-1.55.62A15.62,15.62,0,0,1,976.13,695.82Z"/><path class="cls-5" d="M1008.53,700.57a8.75,8.75,0,0,1,6.29-.1c1.55.72,1.55,2-.21,2.68a8.58,8.58,0,0,1-6.19.2C1006.67,702.63,1006.77,701.39,1008.53,700.57Z"/><path class="cls-5" d="M1022.76,694.58a9.46,9.46,0,0,1,6.3-.3c1.65.82,1.44,1.85-.42,2.68a7.78,7.78,0,0,1-6.08.1C1020.8,696.55,1021,695.41,1022.76,694.58Z"/><path class="cls-93" d="M862.11,744.83c9.38-5.36,18.81-10.27,28.27-15.48a16.29,16.29,0,0,1,14.24.11c10.07,5.58,20.34,10.95,30.24,16.71,3.93,2.29,3.83,6.32,0,8.67-9.48,5.8-19.22,11.46-28.59,17.44a13.27,13.27,0,0,1-13.51-.11c-9.72-6.32-19.9-12.41-29.93-18.67C858.83,751,858.48,746.9,862.11,744.83Z"/><path class="cls-94" d="M873.46,759.38c9.8-1,19.5-4,26.62-8.26s12.59-9.8,13.93-15.57c-3.51-1.86-6.81-3.72-10.21-5.68s-9.39-2.06-12.8-.1c-9.39,5.05-18.78,10.32-28.17,15.37-3.19,2.17-2.78,5.78.62,7.94S870.16,757.31,873.46,759.38Z"/><path class="cls-5" d="M888.94,744.11c7.12-3.87,17.33-4.75,26.52-3.2,2.37,5.16,0,11.25-7.23,15.27s-17.54,5.05-26.31,3.4c-2.68-5.67-.1-11.6,7-15.47Zm5.67.62c3.72-.73,8.21-.21,11.15,1.55s3.61,4.33,2,6.49c3.61-2.78,5-6.29,4.12-9.9a37.89,37.89,0,0,0-17.23,1.86Zm7.85,10.93A15.77,15.77,0,0,1,891.31,754c-2.94-1.85-3.4-4.43-1.86-6.6-3.61,2.89-5.26,6.5-4.23,10a33.87,33.87,0,0,0,17.24-1.76Zm-6.3-9.59c-1.5.83-1.55,2.11-.1,3a5.94,5.94,0,0,0,5.36.31c1.5-.83,1.4-2.37,0-3.2A5.89,5.89,0,0,0,896.16,746.07Z"/><path class="cls-95" d="M814.55,775.47c8.82-5.85,17.76-11.53,26.72-17.23,3.52-2.24,9.66-2,13.62.52,10,6.35,20.08,12.49,29.82,19,3.88,2.59,4,6.86.31,9.39-9,6.24-18,12.59-27,19-3.51,2.47-9.33,2.39-13.2-.42-9.64-7-19.62-13.92-29.41-20.84C811.44,782.09,811.09,777.77,814.55,775.47Z"/><path class="cls-96" d="M825.79,791.36a55.81,55.81,0,0,0,25.59-8.66c6.81-4.54,11.66-10.73,12.9-17.24-3.41-2.16-6.71-4.23-10-6.49-3.61-2.17-9.08-2.38-12.38-.31-8.87,5.77-17.75,11.55-26.73,17.23-3,2.16-2.68,6.08.73,8.46S822.49,789.09,825.79,791.36Z"/><path class="cls-5" d="M831.16,785.58c1.78-1.15,3.51-2.27,5.36-3.5s5-1.24,7.74-.31a20.54,20.54,0,0,1-2.48,1.65l-.1.1a2.91,2.91,0,0,0-2.27.52c-1.85,1.24-3.63,2.35-5.36,3.5-1.36.91-.83,2.69,1,4h0c1.86,1.34,4.45,1.42,5.67.62,1.78-1.17,3.64-2.34,5.37-3.51a1.71,1.71,0,0,0,.72-2.06,19.94,19.94,0,0,0,2.37-1.76c1.76,2.07,1.87,4.55-.1,5.88s-3.65,2.31-5.36,3.51c-2.42,1.69-7.12,1.34-10.63-1.13h0C829.71,790.74,828.8,787.11,831.16,785.58Z"/><path class="cls-5" d="M842.82,784c3.53-2.3,7.1-4.67,10.83-7.12a2.74,2.74,0,0,1,2.37.2h0c.83.62,1,1.3.42,1.66-3.71,2.44-7.13,4.84-10.73,7.22a2.42,2.42,0,0,1-2.58-.31h0C842.4,785.28,842.2,784.44,842.82,784Z"/><path class="cls-5" d="M850.56,772.79c1.74-1.15,3.5-2.27,5.36-3.51,2.48-1.65,7.33-1.13,10.83,1.14h0c3.51,2.27,4.24,5.47,1.76,7.12-1.86,1.24-3.58,2.41-5.26,3.61-1.93,1.38-5.47,1.24-8.47,0,.83-.41,1.66-1,2.48-1.45a4.44,4.44,0,0,0,3-.62c1.73-1.17,3.52-2.25,5.37-3.5,1.35-.92.93-2.58-.93-3.92h0c-2-1.24-4.63-1.43-6-.52-1.85,1.25-3.6,2.4-5.27,3.61-.6.44-.93.83-.72,1.45l-.1.1a23.71,23.71,0,0,0-2.48,1.65C848.8,776,848.69,774,850.56,772.79Z"/><path class="cls-97" d="M1024,672.09c11.24-3.21,22.62-6.41,34-9.49,4.67-1.26,11.57-1.72,15.48-.72,9.82,2.51,19.76,4.87,29.41,7.63,3.67,1.06,2.7,3.76-1.65,5.37-11.34,4.17-22.48,8.31-33.54,12.48a24.42,24.42,0,0,1-15.06,0c-9.79-3.71-20-7-29.93-10.42C1018.66,675.52,1019.36,673.42,1024,672.09Z"/><path class="cls-98" d="M1033.5,680.24c11.35-.72,22.38-2.78,31-5.78,8.67-2.68,15.27-6.29,18.06-9.59-3.31-.83-6.61-1.65-9.81-2.58a34.14,34.14,0,0,0-14,.52c-11.35,3.09-22.8,6.29-34.05,9.49-4.33,1.24-4.64,3.3-1,4.43C1026.79,677.87,1030.09,679.11,1033.5,680.24Z"/><path class="cls-5" d="M1054.75,677.56a3.87,3.87,0,0,1,.83-.21c3.5,1.14,7.12,2.38,10.52,3.51-.1,0,1.14-.41-.72.21s-9.13,1.08-11.56.31-2.37-1.45-1.86-2.38c-.82-.1,1.14.57-2.57-.61s-5.84-5.83,1.54-8,21.57-1.7,25.28-.62,1.55.51,2.07.72a16.64,16.64,0,0,1,7.32.21c2.43.67.68,3-1.13,3.71s-.52.1-.83.31c-3.3-1-7-2.17-10.52-3.09a2.69,2.69,0,0,0,.72-.31.48.48,0,0,1,.31-.11c-5.16-2.27-15.07-1.44-20.53,0-7,2.38-5.68,5.26,1,6.3C1054.65,677.46,1054.6,677.61,1054.75,677.56Z"/><path class="cls-99" d="M915.77,850.48c9.09-7,18.26-13.93,27.34-20.94,3.61-2.79,9.74-2.84,13.31-.11,9.33,7.17,18.5,14.3,27.76,21.46,3.54,2.75,3.35,7.58-.31,10.53-9.14,7.36-18.27,14.93-27.35,22.39a10.35,10.35,0,0,1-12.79.1c-9.23-7.59-18.55-15.2-27.76-22.7C912.39,858.29,912.17,853.26,915.77,850.48Z"/><path class="cls-100" d="M925.77,868.23a52.84,52.84,0,0,0,25.59-10.73c7-5.57,12.08-12.8,13.62-20.43-3.09-2.37-6.08-4.75-9.18-7a10.23,10.23,0,0,0-12,.11l-27.24,21a5.9,5.9,0,0,0-.1,9.5C919.69,863.28,922.78,865.75,925.77,868.23Z"/><path class="cls-5" d="M946.82,855.64c-1.44-1.13-2.78-2.27-4.23-3.3a15.06,15.06,0,0,0,1.86-1.45c-1.34-1.13-2.68-2.26-4.13-3.4a11.67,11.67,0,0,0,1.86-1.44c-.52-.52-1.14-.93-1.86-1.55l2.79-2.17c.62-.41,1.24-1,2-1.55l.1-.1c2.89,2.37,5.68,4.54,8.46,6.71,2.07-1.65,4.13-3.3,6.3-5.06,4.74,3.72,9.49,7.33,14.13,11-.62.62-1.34,1.14-2,1.75-4-3.19-8.15-6.39-12.17-9.49h0c-2.27,1.65-4.34,3.3-6.4,5h0c-2.79-2.17-5.57-4.34-8.46-6.71-.93.72-1.86,1.44-2.68,2.06,2,1.76,4,3.2,6,4.75-.52.51-1.24,1-1.75,1.55a21.53,21.53,0,0,0,2.27,1.85,14.22,14.22,0,0,0-2,1.55c.72.62,1.34,1,2.06,1.55-1.44,1-2.79,2.16-4.33,3.3,2.89,2.17,5.57,4.44,8.46,6.71,2.06-1.65,4.12-3.3,6.29-5.06a11.21,11.21,0,0,1,1.86,1.45c3.51-2.89,7.12-5.68,10.63-8.57a19.91,19.91,0,0,0,2.06,1.45c-4.23,3.4-8.26,6.81-12.49,10a11.71,11.71,0,0,1-1.85-1.45c-1.55,1.34-3.1,2.48-4.54,3.71a11.21,11.21,0,0,0,1.86,1.45c-2.79,2.37-5.68,4.64-8.47,7-4.74-3.81-9.49-7.63-14.24-11.55,4.13-3.3,8.36-6.71,12.59-10Zm-9,10.11c3.61,2.79,7.12,5.78,10.52,8.46,1.65-1.24,3.3-2.68,5-3.92-3.5-2.78-7-5.57-10.52-8.46C941.15,863.07,939.5,864.52,937.85,865.75Z"/><path class="cls-101" d="M1015.23,777.43c9.76-6.35,19.7-12.5,29.51-18.77,3.91-2.5,10.14-2.62,13.62-.42,9.1,5.75,18.17,11.55,27,17.44,3.42,2.26,3,6.65-.82,9.39-9.66,6.86-19.4,13.62-29.1,20.63-3.71,2.69-9.54,2.93-13.1.42-9.14-6.47-18.35-12.93-27.45-19.3C1011.33,784.32,1011.37,780,1015.23,777.43Z"/><path class="cls-102" d="M1024.72,792.81a66.67,66.67,0,0,0,26.83-10.32c7.43-5,13.11-11.35,15.17-18.06-3-1.85-6-3.81-9-5.77-3.2-2.07-8.77-1.86-12.17.51-9.91,6.19-19.81,12.59-29.62,18.88-3.5,2.27-3.71,6.19-.41,8.36C1018.53,788.58,1021.63,790.64,1024.72,792.81Z"/><path class="cls-5" d="M1030.91,786.62c1.85-1.26,3.82-2.39,5.89-3.82s5-1.55,7.84-.72a26.25,26.25,0,0,1-2.79,1.75l-.1.1a4.17,4.17,0,0,0-2.38.73c-2,1.36-3.94,2.44-5.77,3.71-1.58,1.1-1.24,3,.51,4.13h0c1.66,1.13,4.42,1.31,5.89.31,1.83-1.27,3.82-2.57,5.78-3.92a2,2,0,0,0,.72-2.17c.82-.62,1.65-1,2.57-1.75,1.66,2.06,1.35,4.24-.72,5.67s-3.94,2.66-5.78,3.92c-2.8,1.93-7.53,1.76-10.62-.52h0C1028.75,791.88,1028.22,788.45,1030.91,786.62Z"/><path class="cls-5" d="M1042.68,784.55c3.94-2.65,7.82-5.18,11.86-7.94a2.22,2.22,0,0,1,2.38.31h0a.76.76,0,0,1,.2,1.34c-4,2.76-7.82,5.39-11.76,8a2.44,2.44,0,0,1-2.27-.11h0C1042.27,785.58,1042.18,784.89,1042.68,784.55Z"/><path class="cls-5" d="M1051.86,772.69c2-1.3,4-2.64,6-3.92,2.64-1.71,7.53-1.55,10.73.41h0c3.09,2.06,3.39,5.25.82,7l-5.88,4a9.8,9.8,0,0,1-8.36.72,22,22,0,0,1,2.58-1.75,4.56,4.56,0,0,0,3.1-.62c1.89-1.44,4-2.56,6-3.92,1.46-1,1.14-2.89-.41-3.92h0a6.08,6.08,0,0,0-6-.31c-2,1.29-3.92,2.68-5.77,3.92a1.72,1.72,0,0,0-.93,1.55l-.1.1a25.65,25.65,0,0,1-2.69,1.86C1049.69,776,1049.86,774,1051.86,772.69Z"/><path class="cls-103" d="M1068.06,744c10.08-5.83,20.47-11.69,30.75-17.53,4.06-2.31,10.43-2.49,13.82-.62,8.78,4.83,17.56,9.88,26.21,15,3.32,1.94,2.53,5.94-1.44,8.56-10,6.57-20.18,13-30,19.5-4.08,2.69-9.79,2.94-13.2.72-9-5.83-18-11.37-27-17C1063.64,750.38,1063.9,746.42,1068.06,744Z"/><path class="cls-104" d="M1076.83,757.83a79.6,79.6,0,0,0,27.65-9.9c7.64-4.75,13.73-10.73,16.1-16.72-2.79-1.65-5.78-3.4-8.67-5.05-3.09-1.76-8.67-1.35-12.48.82-10.32,5.78-20.54,11.66-30.65,17.44-3.71,2.27-4,5.67-.93,7.63S1073.94,755.87,1076.83,757.83Z"/><path class="cls-5" d="M1108.51,734.2c2.78.21,5.57.52,8.25.73-1.86,1.75-3.51,3.4-5.36,5.05a11.87,11.87,0,0,1-2.48,2.07c-.68.36-.52.3-.72.51,1.65.21,2-.15,4.54,1.34s3.3,6.4-1,9.29a25.85,25.85,0,0,1,2.27,1.34c1-.62,2.06-1.45,3.19-2.17a4.56,4.56,0,0,0,.93.62c-2.68,1.65-5.36,3.3-7.94,5.06a5,5,0,0,1-1-.52c1.13-.72,2.27-1.44,3.3-2.06-.72-.52-1.45-.83-2.17-1.34a19.43,19.43,0,0,1-7.53,1.65h0c-9.8,1-13.83-2.89-22.6-2.17,15.27-3.71,11.56-5.26,16.92-8.77a15.12,15.12,0,0,1,2.28-1.13c-1-.11-.78.25-2.69-.93s-2.37-5.16,1-7.22a13.24,13.24,0,0,1,10.84-1.35Zm.82,12.08c-2.27.51-4.74,1-7.12,1.34-5,.82-4,3.71-8.87,5.57,5.47-2.27,17.44,1.44,16-6.91Zm-7.84-8.67c-1.13.72-1.39,1.75-.41,2.27a4.83,4.83,0,0,0,4.13-.1c1.23-.73,1.13-1.81.2-2.38A4.22,4.22,0,0,0,1101.49,737.61Z"/><path class="cls-105" d="M1123.47,713.16c10.76-5.31,21.49-10.67,32.29-16,4.27-2.1,10.54-2.6,13.83-1,8.37,4,16.79,7.91,25,12.07,3.17,1.62,2.08,5.3-2.06,7.74q-15.6,9.18-31.16,18.37c-4.18,2.46-10.13,2.64-13.42.72-8.58-5-17.41-9.74-26.2-14.55C1118.44,718.69,1119.16,715.28,1123.47,713.16Z"/><path class="cls-106" d="M1131.1,725a83.74,83.74,0,0,0,28.58-9.39c8.16-4.43,14.55-9.7,17.44-15-2.78-1.44-5.47-2.89-8.25-4.23s-8.57-.82-12.49,1c-10.73,5.37-21.56,10.63-32.19,16.1-4,2-4.74,4.95-1.75,6.6S1128.32,723.37,1131.1,725Z"/><path class="cls-5" d="M1170,711.71c2.07-1.13,2.27-1.13,3.51-1.24-3.3-1.54-6.6-3-9.7-4.64-4.43,3-8.77,5.78-13.21,8.67,3.93,2.06,7.85,4,11.56,6,.21.1-.74-.34.31.1s1,3.15-2,4.85-7,2.27-8.87,1.24.15-3.66,2.16-4.75,1.55-.92,2.69-1.23c-4.13-2.27-8.36-4.54-12.59-6.61,6.09-4.12,12.17-8,18-11.86,1.55.82,3.41,1.75,5.06,2.58,3.72,2,8,3.82,11.76,5.67h0c1.66.93.78,3-2.16,4.65s-6.91,2.27-8.77,1.34S1167.94,712.85,1170,711.71Z"/><path class="cls-107" d="M964.57,813c9.39-6.75,18.93-13.25,28.37-19.91,3.87-2.73,10.06-2.74,13.52-.31q14,9.81,27.55,19.6c3.53,2.55,3.13,7.14-.62,10-9.46,7.24-18.88,14.32-28.06,21.46-3.82,3-9.56,3.15-13.11.41-9.14-7.06-18.45-14-27.75-21C960.87,820.54,960.75,815.78,964.57,813Z"/><path class="cls-108" d="M974.37,829.74a59,59,0,0,0,26.11-10.62c7.22-5.37,12.69-12.18,14.44-19.19-3.09-2.17-6.09-4.34-9.18-6.61s-8.67-2.16-12.07.42c-9.49,6.6-18.88,13.31-28.38,19.91a5.45,5.45,0,0,0-.1,9.08C968.28,825,971.48,827.37,974.37,829.74Z"/><path class="cls-5" d="M992.22,808.49c.42-3.51,4.54-6.29,9.29-6.4,5,0,8.93,3.35,8.77,6.3s-1.86,4.54-4.54,5.78a41.43,41.43,0,0,1-.21,5.15c2.69,1.14,4.34,2.79,4.23,5.78s-4.23,6.71-9.28,6.81-9-2.89-8.88-6.71c.11-2.47.11-5.26.21-8-7.74-3.41-6.19.31-7.94,4.74a4,4,0,0,1-3.82,2.69c-.52-.42-1.14-.73-1.65-1.14,2.27.31,3.19-.52,3.92-1.86,1.65-4.43.51-9.49,9.59-5.67.21-2.27.31-4.64.31-7v-.41Zm10.22,3a15.58,15.58,0,0,0-.11-2.16,29.13,29.13,0,0,0,3.2-.11c.11-.41,0-1.13.11-1.85-1,0-2.07.2-3.1.1a20.69,20.69,0,0,1,.1-2.38,21.83,21.83,0,0,1-2.68.21,14.22,14.22,0,0,1,0,2.17,17.09,17.09,0,0,1-3.2,0,5.21,5.21,0,0,1,0,1.86c1,.1,2,.1,3,.1a15.64,15.64,0,0,1,0,2.17,11.27,11.27,0,0,0,2.68-.11ZM995,825.31a1.46,1.46,0,0,0,1.65,1.24c1,0,1.75-.52,1.75-1.35a1.45,1.45,0,0,0-1.65-1.23,1.71,1.71,0,0,0-1.75,1.34Zm7.53,0c0,.62.83,1.13,1.76,1.13a1.53,1.53,0,0,0,1.65-1.24c0-.82-.67-1.29-1.65-1.23s-1.76.51-1.76,1.34Zm-2.17,4a1.63,1.63,0,0,0,1.76-1.34c0-.67-.83-1.24-1.65-1.24-1,0-1.86.52-1.86,1.24s.82,1.24,1.75,1.34Zm.11-5.57c1,0,1.85-.52,1.85-1.24s-.72-1.34-1.75-1.34a1.6,1.6,0,0,0-1.65,1.24C998.88,823.09,999.65,823.76,1000.48,823.76Z"/><path class="cls-109" d="M1114.7,774.24c9.88-6.64,19.87-13.33,29.82-19.92,4.08-2.7,9.86-3.14,13.1-.93,8.22,5.63,16.57,11.07,24.66,16.51,3.26,2.19,2.34,6.56-1.55,9.49L1152,801.17c-4,3-9.62,3.43-12.9,1-8.38-6.16-16.9-12.31-25.49-18.58C1110.28,781.23,1110.76,776.88,1114.7,774.24Z"/><path class="cls-110" d="M1122.75,789.2A63.67,63.67,0,0,0,1149.26,778c7.43-5.16,13.42-11.86,15.89-18.78-2.68-1.55-5.47-3.51-8.15-5.36-3-2.07-8.25-1.55-11.86.82-10,6.71-19.92,13.31-29.82,19.92-3.51,2.47-4,6.29-.93,8.66C1117.17,785.17,1120,787.34,1122.75,789.2Z"/><path class="cls-5" d="M1129.25,782.9c1.9-1.39,3.7-2.69,5.77-4.12a9.37,9.37,0,0,1,7.74-.83,31.08,31.08,0,0,0-2.68,1.86l-.1.1a4.08,4.08,0,0,0-2.58.72c-1.88,1.43-3.83,2.77-5.78,4.13-1.45,1-1.24,2.78.31,3.92h0a4.87,4.87,0,0,0,5.57.21c1.94-1.37,3.84-2.76,5.78-4.13a2.93,2.93,0,0,0,1.13-2.27,26.86,26.86,0,0,1,2.58-1.75,4.08,4.08,0,0,1-1.34,5.77c-1.94,1.37-3.88,2.74-5.78,4.13-2.74,2-7.32,1.75-10.31-.41h0C1126.67,788.16,1126.5,784.92,1129.25,782.9Z"/><path class="cls-5" d="M1140.7,780.32c3.91-2.69,7.84-5.57,11.76-8.25a2.62,2.62,0,0,1,2.48,0h0a1,1,0,0,1,0,1.75c-3.91,2.7-7.83,5.6-11.66,8.36a2.15,2.15,0,0,1-2.37-.21h0C1140.08,781.56,1140,780.83,1140.7,780.32Z"/><path class="cls-5" d="M1150.5,768c2-1.34,3.83-2.77,5.78-4.12a9.44,9.44,0,0,1,10.22.1h0c2.78,2,2.93,5.22.2,7.22-1.91,1.41-3.82,2.78-5.78,4.13a10.07,10.07,0,0,1-7.94,1c.82-.62,1.65-1.24,2.58-2a4.67,4.67,0,0,0,3.09-.72c1.93-1.36,3.77-2.61,5.78-4.13,1.4-1.06,1.24-2.78-.31-4h0a5.28,5.28,0,0,0-5.36.1c-2.06,1.45-4.09,2.71-6,4.13a2,2,0,0,0-.82,1.65s0,0-.11.1c-1,.65-1.85,1.24-2.68,1.86A3.87,3.87,0,0,1,1150.5,768Z"/><path class="cls-111" d="M1168.35,739c10.29-6.17,20.54-12.69,30.85-18.88,4.13-2.48,10-3.06,13-1.24,7.72,4.68,15.5,9.27,23.12,13.93,3,1.84,2,5.85-2,8.66-9.93,7-19.78,14.08-29.51,21.05-4.1,2.94-9.84,3.26-13,1.14-8.09-5.42-16.25-10.67-24.35-16.2C1163.25,745.2,1164.2,741.44,1168.35,739Z"/><path class="cls-112" d="M1175.27,752.16a70.8,70.8,0,0,0,27.13-10.84c7.74-5.05,13.93-11.14,16.82-17.43-2.58-1.45-5.16-3-7.74-4.54-2.68-1.76-7.94-1.24-11.66,1-10.31,6.19-20.74,12.48-31,18.78-3.82,2.37-4.54,5.77-1.76,7.84C1169.9,748.75,1172.58,750.61,1175.27,752.16Z"/><path class="cls-5" d="M1188.58,739c2.65-1.69,5.36-3.3,7.84-5-1.55-.93-3.24-2-4.75-3.1-.65-.47-.51-1.24.41-1.75h0a2.48,2.48,0,0,1,2.58-.21c1.73,1.18,3.41,2.06,5.16,3.1,1.65-.73,3.66-.81,4.75-.11,5.32,3.43,10.59,6.72,15.89,10,1.51.94,1.08,2.75-.72,4-3.15,2.23-6.47,4.48-9.6,6.7-1.82,1.29-4.72,1.62-6.09.72-5.55-3.64-10.74-7.25-16.2-10.73-1.36-.86-1.16-2.51.73-3.71Zm2.06,1.24c-.37.24-.57.7-.21.93,2.65,1.64,5.27,3.4,7.85,5.16,3.81-2.58,7.73-5.06,11.55-7.64-2.68-1.65-5.29-3.41-7.84-4.95-.36-.22-.84-.1-1.45.31C1197.32,736.17,1193.89,738.05,1190.64,740.19Z"/><path class="cls-113" d="M1063,811.48c9.62-7.11,19.3-13.92,29-20.94,3.83-2.78,9.6-3.1,13.1-.52,8.57,6.3,17.2,12.49,25.59,18.68,3.38,2.48,2.76,7.18-.93,10.11Q1115.63,830,1101.6,841.4c-3.76,3.05-9.48,3.28-12.9.62-8.65-6.73-17.48-13.57-26.21-20.32C1059,819,1059.22,814.28,1063,811.48Z"/><path class="cls-114" d="M1071.77,827.78a57.59,57.59,0,0,0,26-11.35c7.32-5.46,13-12.48,15.06-19.81-2.68-2-5.57-4-8.46-6.08-3.09-2.38-8.26-2.17-11.87.41-9.59,6.91-19.19,14-28.78,20.95-3.51,2.68-3.82,6.7-.72,9.28C1066,823.35,1069,825.72,1071.77,827.78Z"/><path class="cls-5" d="M1088.49,808.9a34.49,34.49,0,0,1,25-5.67c1.65,6.29-1.34,13.46-8.56,18.88a32.61,32.61,0,0,1-25,5.67c-1.86-6.6,1.23-13.77,8.56-18.88Zm5.16.31c3.61-1.24,7.69-1,10.21,1s2.69,5.16.93,8c3.61-3.72,5.57-8.05,5.16-12.38a28.32,28.32,0,0,0-16.3,3.4Zm6,12.69c-3.62,1.24-7.69.78-10.22-1.23s-2.79-5.16-1-7.85c-3.72,3.61-5.57,8-5.16,12.38a29.2,29.2,0,0,0,16.41-3.3Zm-4.75-11.14c-1.45,1-1.71,2.73-.52,3.71s3.51.88,5-.1,1.75-2.73.51-3.71A4.54,4.54,0,0,0,1094.89,810.76Z"/><path class="cls-115" d="M1013.06,850.28c9.22-7.32,18.57-14.45,28-21.77,3.71-2.9,9.59-3.09,13.1-.31,8.77,6.92,17.64,13.72,26.31,20.63,3.5,2.79,3.22,7.65-.51,10.73-9.27,7.65-18.53,15.31-27.65,23.11-3.67,3.14-9.36,3.36-12.91.42-8.73-7.27-17.69-14.61-26.61-22C1009.19,858.16,1009.28,853.28,1013.06,850.28Z"/><path class="cls-116" d="M1022.25,867.82a54.85,54.85,0,0,0,25.59-11.56c7-5.78,12.48-13,14.34-20.74-2.89-2.16-5.78-4.43-8.77-6.81-3.1-2.58-8.46-2.37-11.76.31-9.39,7.33-18.68,14.55-28,21.77-3.3,2.68-3.5,7-.31,9.7C1016.37,863.07,1019.36,865.44,1022.25,867.82Z"/><path class="cls-5" d="M1039.48,849.55c-.82-3.61-.4-6.17,3.3-9.07,4-3.18,9.8-3.92,12.9-1.45,5.46,4.34,3.71,14.75,2.06,25.17-12.89,1.45-25.77,2.76-31.26-1.75-3.18-2.61-2.39-7.24,1.65-10.42C1031.83,849.12,1035,848.93,1039.48,849.55Z"/><path class="cls-117" d="M964.36,890.51c9-7.52,18.18-15,27.24-22.49,3.63-3,9.48-3.18,13-.2,9,7.55,17.9,14.92,26.73,22.28,3.55,3,3.3,7.95-.31,11.14q-13.47,11.93-27,23.73a10,10,0,0,1-12.8.11c-8.82-7.8-17.84-15.49-26.93-23.32A7.22,7.22,0,0,1,964.36,890.51Z"/><path class="cls-118" d="M973.75,908.88A50.58,50.58,0,0,0,999,897.22c6.92-5.88,12.18-13.31,13.73-21.56-2.79-2.27-5.78-4.85-8.77-7.22a9.07,9.07,0,0,0-11.77.1C983.14,876,974.06,883.6,965,891c-3.3,2.89-3.4,7.32-.2,10.21C967.87,903.93,970.86,906.51,973.75,908.88Z"/><path class="cls-5" d="M980.77,904c9.6-7.74,28.68-4.39,33.22-.52s.32.11.32.21c-1.66,1.45-3.2,2.79-4.55,4.13-.2-.11,2.9,2.48-.41-.31s-17.13-5.26-24,.41c-1.55-1.34-2.89-2.68-4.54-3.92Zm13.52,5.68a3.8,3.8,0,0,0-.11,5.88,5.45,5.45,0,0,0,6.81-.21,3.72,3.72,0,0,0,0-5.78,5.33,5.33,0,0,0-6.7.11Zm-22.5-13.42c1.65,1.24,3,2.58,4.65,3.82,12-9.91,36.42-5.47,42.2-.62s.31.1.31.21c1.65-1.24,3.09-2.69,4.74-3.92-.1-.21,6.78,5.58-.2-.31S986.55,884.22,971.79,896.29Z"/><path class="cls-119" d="M1210.14,767.53c9.77-7.13,19.52-14.32,29.3-21.46,3.94-2.87,9.42-3.64,12.18-1.55,7,5.34,14.13,10.64,21.15,15.89,2.78,2.07,2,6.41-1.75,9.49-9.38,7.75-18.67,15.59-27.86,23.32-3.81,3.2-9.33,4-12.28,1.65-7.57-5.94-15.11-12-22.7-18.06C1205.35,774.57,1206.19,770.41,1210.14,767.53Z"/><path class="cls-120" d="M1216.43,782.39A62.61,62.61,0,0,0,1241.92,770c7.33-5.68,13.31-12.7,16-19.61-2.27-1.86-4.64-3.61-7-5.36s-7.33-1.24-10.94,1.34c-9.8,7.12-19.6,14.24-29.3,21.46-3.72,2.68-4.44,6.4-1.76,8.46C1211.38,778.36,1214,780.32,1216.43,782.39Z"/><path class="cls-5" d="M1251.1,765c1.86-1.44,2.07-1.55,3.3-1.86-2.89-1.75-5.67-3.61-8.35-5.47-4.13,3.61-8,7.43-12.07,11.15,3.3,2.47,6.8,4.85,10,7.32.1.11-.42-.31.41.31s.67,3.77-2,6-6,3.09-7.74,1.85,0-4.69,1.86-6.19,1.44-1.24,2.47-1.65c-3.71-2.68-7.22-5.67-10.83-8.36,5.36-5.26,10.94-10.31,16.3-15.47,1.44,1.13,2.89,2.27,4.33,3.3,3.3,2.58,6.81,5,10,7.43h0c1.45,1.24.62,3.82-2.06,6s-6.09,2.84-7.74,1.55S1249.25,766.39,1251.1,765Z"/><path class="cls-121" d="M1108.61,847.59c9.28-7.64,18.71-15.33,28.07-22.9,3.64-3,9.4-3.42,12.48-.83,8.06,6.8,16.2,13.52,24.25,20.23,3.09,2.57,2.68,7.53-.93,10.73-9.08,8-18.23,16-27.24,24.14-3.58,3.23-9.1,3.74-12.38.93-8.38-7.2-16.68-14.39-25.08-21.67C1104.52,855.39,1105,850.58,1108.61,847.59Z"/><path class="cls-122" d="M1116.76,864.93a54,54,0,0,0,25.18-12.28c7-6,12.59-13.62,14.65-21.36q-3.87-3.56-8-6.81c-2.89-2.48-7.94-2.06-11.35.72-9.39,7.54-18.67,15.17-28,22.81-3.4,2.78-3.72,7.11-.83,9.59S1114.08,862.45,1116.76,864.93Z"/><path class="cls-5" d="M1129.35,841.82c4,1.65,8.05,3.19,12.07,4.74,3.51-3.09,7-6,10.42-9.08-1,4-2.06,7.95-3.09,11.87,4,1.44,7.94,2.89,11.86,4.33-4.54,1-9.28,2.06-13.72,2.89-1.24,4-2.17,8-3.2,12-1.85-3.3-3.71-6.81-5.36-10.22-4.75.83-9.5,1.86-14.14,2.48,3.51-2.79,7.12-5.78,10.63-8.67C1133.07,848.73,1131.31,845.32,1129.35,841.82Z"/><path class="cls-123" d="M1059.6,889.17c9.05-7.87,18.32-15.51,27.45-23.32,3.66-3.13,9.42-3.44,12.69-.61,8.39,7.28,16.69,14.67,25.07,21.87,3.28,2.81,3,7.89-.52,11.14-8.93,8.2-18.1,16.36-26.93,24.45-3.65,3.36-9.26,3.7-12.58.73q-12.83-11.49-25.8-23C1055.65,897.46,1056,892.34,1059.6,889.17Z"/><path class="cls-124" d="M1068.27,907.44c9.39-1.45,18.16-6.3,25-12.28s12.38-13.83,14.13-22.08c-2.78-2.37-5.47-4.85-8.36-7.33s-8.15-2.27-11.45.62c-9.18,7.74-18.26,15.58-27.34,23.22-3.3,2.89-3.51,7.53-.52,10.11S1065.48,904.86,1068.27,907.44Z"/><path class="cls-5" d="M1084,886.39a28.69,28.69,0,0,1,24.15-5.88c1.65,7.11-1.14,15.32-7.95,21.15a27.8,27.8,0,0,1-24,5.78c-1.75-7.23.93-15.33,7.84-21.05Zm5.16.51a9.35,9.35,0,0,1,9.7,1.34,6.89,6.89,0,0,1,1.13,8.77,17.79,17.79,0,0,0,4.75-13.61,23.92,23.92,0,0,0-15.58,3.5Zm5.88,14.24a9.46,9.46,0,0,1-9.8-1.44,7,7,0,0,1-1.14-8.77,17.92,17.92,0,0,0-4.64,13.72,22.53,22.53,0,0,0,15.58-3.51Zm-4.75-12.59a2.9,2.9,0,0,0-.31,4.34,3.62,3.62,0,0,0,4.75-.11c1.4-1.24,1.65-3,.41-4.23A3.89,3.89,0,0,0,1090.24,888.55Z"/><path class="cls-125" d="M1158.65,806.84l28.69-22.08c3.84-3,9.54-3.57,12.48-1.24,7.59,6,15.3,12.15,22.91,18.26,2.91,2.35,2.3,7-1.44,10.22-9.16,8-18.41,15.85-27.45,23.73-3.75,3.26-9.29,3.92-12.38,1.34-8-6.71-16.09-13.32-24-20C1154.33,814.46,1154.81,809.8,1158.65,806.84Z"/><path class="cls-126" d="M1166.18,823.14c9.29-1.75,18.17-6.5,25.28-12.38s12.9-13.1,15.28-20.53c-2.59-2.17-5.06-4.23-7.64-6.19-2.58-2.17-7.74-1.65-11.25,1-9.49,7.43-19.08,14.75-28.58,22.18-3.51,2.69-3.92,6.92-1.13,9.29C1160.82,818.6,1163.5,820.87,1166.18,823.14Z"/><path class="cls-5" d="M1204.15,802.92c2.69-4.13,2.85-7.78.63-9.6-3.46-2.82-11.9-.76-18.78,4.75a24.9,24.9,0,0,0-5.78,6.09c3.61-1.24,6.73-1.26,8.46.2,2.4,2,1.44,6.3-2.27,10.11,3.92-.3,8.51-2.54,12.59-5.88a8.53,8.53,0,0,0,1.34-1.23c4.33-.42,8.56-.93,12.9-1.35C1204.15,802.92,1207.15,804.05,1204.15,802.92Z"/><path class="cls-5" d="M1178.57,820.36c-4.34,1.75-8,1.7-9.91.1-2.85-2.42-.79-7.91,4.75-12.28a26.28,26.28,0,0,1,6.81-4c-2.27,3.71-2.52,7.37-.1,9.28,1.5,1.19,3.81,1.45,6.29,1A11.17,11.17,0,0,1,1184,817a5.86,5.86,0,0,1-1.24.72c-.31,3.1-.52,6-.83,8.77-3.4-6.08-2.37-4.12-3.4-6.08Zm4.33-16.93c.1,0,.41,0,.51-.2-.1.2-.41.2-.51.2Zm2.79-.1c.2-.1.2,0,.31,0-.11,0-.11-.1-.31,0Zm4.33,3.2c.21,1.75-.51,4.13-2.37,6.5,1.86-2.37,2.58-4.75,2.37-6.5Zm-2.37,6.5c-.1.41-.42.52-.52.72C1187.23,813.55,1187.55,813.44,1187.65,813Z"/></g></g></svg>