<svg id="Layer_1" data-name="Layer 1" xmlns="http://www.w3.org/2000/svg" viewBox="0 0 534.64 867.98"><defs><style>.cls-1{fill:#fff;}</style></defs><g id="Final"><path class="cls-1" d="M536.59,616.4a136.67,136.67,0,1,1-273.33,0v-.07H132.6c0,147.64,119.69,267.33,267.32,267.33S667.24,764,667.24,616.33H536.59Z" transform="translate(-132.6 -15.67)"/><path class="cls-1" d="M667.24,80.16a64.49,64.49,0,1,1-64.48-64.49A64.48,64.48,0,0,1,667.24,80.16Z" transform="translate(-132.6 -15.67)"/><path class="cls-1" d="M602.76,163.17A82.82,82.82,0,0,1,524.76,52,266.11,266.11,0,0,0,399.92,21C252.29,21,132.6,140.7,132.6,288.33S252.29,555.65,399.92,555.65,667.24,436,667.24,288.33A266,266,0,0,0,633,157.41,82.63,82.63,0,0,1,602.76,163.17ZM399.92,425.06A136.67,136.67,0,1,1,536.59,288.4,136.66,136.66,0,0,1,399.92,425.06Z" transform="translate(-132.6 -15.67)"/></g></svg>